<svg viewBox="0 0 512 512" xmlns="http://www.w3.org/2000/svg"><path d="m436 146c5.519531 0 10-4.480469 10-10s-4.480469-10-10-10-10 4.480469-10 10 4.480469 10 10 10zm0 0"/><path d="m502 446h-16v-390c0-5.523438-4.476562-10-10-10h-80c-5.523438 0-10 4.476562-10 10v390h-40v-270c0-5.523438-4.476562-10-10-10h-80c-5.523438 0-10 4.476562-10 10v270h-40v-150c0-5.523438-4.476562-10-10-10h-80c-5.523438 0-10 4.476562-10 10v150h-40v-436c0-5.523438-4.476562-10-10-10s-10 4.476562-10 10v36h-36c-5.523438 0-10 4.476562-10 10s4.476562 10 10 10h36v40h-36c-5.523438 0-10 4.476562-10 10s4.476562 10 10 10h36v40h-36c-5.523438 0-10 4.476562-10 10s4.476562 10 10 10h36v40h-36c-5.523438 0-10 4.476562-10 10s4.476562 10 10 10h36v40h-36c-5.523438 0-10 4.476562-10 10s4.476562 10 10 10h36v40h-36c-5.523438 0-10 4.476562-10 10s4.476562 10 10 10h36v40h-36c-5.523438 0-10 4.476562-10 10s4.476562 10 10 10h36v30c0 5.523438 4.476562 10 10 10h30v36c0 5.523438 4.476562 10 10 10s10-4.476562 10-10v-36h40v36c0 5.523438 4.476562 10 10 10s10-4.476562 10-10v-36h40v36c0 5.523438 4.476562 10 10 10s10-4.476562 10-10v-36h40v36c0 5.523438 4.476562 10 10 10s10-4.476562 10-10v-36h40v36c0 5.523438 4.476562 10 10 10s10-4.476562 10-10v-36h40v36c0 5.523438 4.476562 10 10 10s10-4.476562 10-10v-36h40v36c0 5.523438 4.476562 10 10 10s10-4.476562 10-10v-36h36c5.523438 0 10-4.476562 10-10s-4.476562-10-10-10zm-316 0h-60v-140h60zm140 0h-60v-260h60zm140 0h-60v-380h60zm0 0"/><path d="m436 246c5.523438 0 10-4.476562 10-10v-60c0-5.523438-4.476562-10-10-10s-10 4.476562-10 10v60c0 5.523438 4.476562 10 10 10zm0 0"/></svg>