<svg viewBox="-56 0 512 512" xmlns="http://www.w3.org/2000/svg"><path d="m70 200c5.519531 0 10-4.480469 10-10s-4.480469-10-10-10-10 4.480469-10 10 4.480469 10 10 10zm0 0"/><path d="m370 60h-30v-30c0-16.542969-13.457031-30-30-30h-171.71875c-7.949219 0-15.625 3.203125-21.210938 8.789062l-108.28125 108.277344c-5.511718 5.511719-8.789062 13.167969-8.789062 21.214844v277.71875c0 16.542969 13.457031 30 30 30h30v36c0 16.542969 13.457031 30 30 30h280c16.542969 0 30-13.457031 30-30v-392c0-16.542969-13.457031-30-30-30zm-250-25.855469v85.855469h-85.859375zm-90 391.855469c-5.515625 0-10-4.484375-10-10v-276h110c5.523438 0 10-4.476562 10-10v-110h170c5.515625 0 10 4.484375 10 10v386c0 5.515625-4.484375 10-10 10zm350 56c0 5.515625-4.484375 10-10 10h-280c-5.515625 0-10-4.484375-10-10v-36h230c16.542969 0 30-13.457031 30-30v-336h30c5.515625 0 10 4.484375 10 10zm0 0"/><path d="m270 60h-80c-5.523438 0-10 4.476562-10 10v60c0 5.523438 4.476562 10 10 10h80c5.523438 0 10-4.476562 10-10v-60c0-5.523438-4.476562-10-10-10zm-10 60h-60v-40h60zm0 0"/><path d="m270 180h-160c-5.523438 0-10 4.476562-10 10s4.476562 10 10 10h160c5.523438 0 10-4.476562 10-10s-4.476562-10-10-10zm0 0"/><path d="m270 240h-200c-5.523438 0-10 4.476562-10 10s4.476562 10 10 10h200c5.523438 0 10-4.476562 10-10s-4.476562-10-10-10zm0 0"/><path d="m270 300h-200c-5.523438 0-10 4.476562-10 10s4.476562 10 10 10h200c5.523438 0 10-4.476562 10-10s-4.476562-10-10-10zm0 0"/><path d="m270 360h-200c-5.523438 0-10 4.476562-10 10s4.476562 10 10 10h200c5.523438 0 10-4.476562 10-10s-4.476562-10-10-10zm0 0"/></svg>