<svg height="496pt" viewBox="0 0 496 496" width="496pt" xmlns="http://www.w3.org/2000/svg"><path d="m336 224c-61.761719 0-112 50.238281-112 112s50.238281 112 112 112 112-50.238281 112-112-50.238281-112-112-112zm-15.832031 206.585938-.183594-65.027344-4.617187-2.144532c-16.625-7.726562-27.367188-24.238281-27.367188-42.078124 0-13.34375 6.007812-25.953126 16-34.6875v29.632812l32 21.335938 32-21.335938v-29.632812c9.992188 8.734374 16 21.34375 16 34.6875 0 17.839843-10.742188 34.351562-27.367188 42.078124l-4.617187 2.144532-.183594 65.027344c-5.160156.855468-10.433593 1.414062-15.832031 1.414062s-10.671875-.558594-15.832031-1.414062zm47.671875-4.128907.144531-50.914062c19.601563-11.117188 32.015625-31.878907 32.015625-54.207031 0-24.039063-14.375-46.257813-36.632812-56.59375l-11.367188-5.277344v48.253906l-16 10.664062-16-10.664062v-48.253906l-11.367188 5.277344c-22.257812 10.335937-36.632812 32.554687-36.632812 56.59375 0 22.335937 12.414062 43.089843 32.015625 54.207031l.144531 50.914062c-37.3125-13.175781-64.160156-48.695312-64.160156-90.457031 0-52.9375 43.0625-96 96-96s96 43.0625 96 96c0 41.761719-26.847656 77.28125-64.160156 90.457031zm0 0"/><path d="m475.191406 299.433594c-3.304687-12.585938-8.3125-24.648438-14.925781-35.960938l9.949219-19.527344-14.214844-14.21875v-149.726562h16v-56c0-13.230469-10.769531-24-24-24h-400c-13.230469 0-24 10.769531-24 24v56h16v222.609375l-40 29.335937v59.734376l32-23.207032v127.527344h192v-45.726562l19.945312 19.941406 19.527344-9.957032c11.3125 6.621094 23.367188 11.628907 35.953125 14.925782l6.757813 20.816406h59.625l6.757812-20.808594c12.585938-3.304687 24.640625-8.3125 35.953125-14.925781l19.527344 9.957031 42.167969-42.167968-9.949219-19.527344c6.613281-11.3125 11.621094-23.367188 14.925781-35.960938l20.808594-6.75v-59.625zm-435.191406-275.433594c0-4.40625 3.585938-8 8-8h400c4.414062 0 8 3.59375 8 8v40h-416zm400 56v16h-384v-16zm-384 32h384v101.726562l-11.945312-11.941406-4.054688 2.0625v-75.847656h-96v48h-21.816406l-6.757813 20.808594c-1.152343.304687-2.28125.695312-3.433593 1.023437v-69.832031h-95.992188v96h21.726562l-19.941406 19.945312 9.949219 19.527344c-5.03125 8.597656-9.117187 17.648438-12.253906 27.015625l-71.480469-52.410156-72 52.800781zm352 99.457031c-11.160156-6.472656-23.03125-11.394531-35.433594-14.648437l-6.75-20.808594h-21.816406v-32h64zm-170.273438-3.457031h-21.726562v-64h64v59.472656c-5.65625 2.398438-11.175781 5.136719-16.519531 8.261719l-19.527344-9.957031zm-221.726562 132.054688 112-82.132813 60.34375 44.253906-12.34375 4.007813v6.871094l-48.0625-33.910157-111.9375 81.175781zm80 139.945312v-64h64v64zm112 0h-32v-80h-96v80h-32v-123.128906l80.0625-58.0625 47.9375 33.824218v33.183594l20.808594 6.757813c3.304687 12.585937 8.3125 24.648437 14.925781 35.960937l-9.949219 19.527344 6.214844 6.210938zm272-125.816406-18.304688 5.945312-1.007812 4.429688c-3.175781 13.921875-8.679688 27.167968-16.351562 39.378906l-2.414063 3.847656 8.765625 17.175782-25.726562 25.71875-17.183594-8.757813-3.839844 2.414063c-12.210938 7.671874-25.457031 13.175781-39.378906 16.34375l-4.421875 1.007812-5.953125 18.3125h-36.375l-5.945313-18.304688-4.421875-1.007812c-13.921875-3.167969-27.167968-8.671875-39.378906-16.34375l-3.839844-2.414062-17.183594 8.757812-25.726562-25.71875 8.765625-17.175781-2.414063-3.847657c-7.671874-12.210937-13.167968-25.457031-16.351562-39.378906l-1.007812-4.429687-18.304688-5.953125v-36.375l18.304688-5.945313 1.007812-4.429687c3.175781-13.921875 8.679688-27.167969 16.351562-39.378906l2.414063-3.847657-8.765625-17.175781 25.726562-25.71875 17.183594 8.757812 3.839844-2.414062c12.210938-7.671875 25.457031-13.175781 39.378906-16.34375l4.421875-1.007812 5.953125-18.304688h36.375l5.945313 18.304688 4.421875 1.007812c13.921875 3.167969 27.167968 8.671875 39.378906 16.34375l3.839844 2.414062 17.183594-8.757812 25.726562 25.71875-8.765625 17.175781 2.414063 3.847657c7.671874 12.210937 13.167968 25.457031 16.351562 39.378906l1.007812 4.429687 18.304688 5.953125zm0 0"/><path d="m128 320c-17.648438 0-32 14.351562-32 32s14.351562 32 32 32 32-14.351562 32-32-14.351562-32-32-32zm0 48c-8.824219 0-16-7.175781-16-16s7.175781-16 16-16 16 7.175781 16 16-7.175781 16-16 16zm0 0"/><path d="m168 128h-96v96h96zm-16 80h-64v-64h64zm0 0"/></svg>