<svg viewBox="-35 0 511 511.99955" xmlns="http://www.w3.org/2000/svg"><path d="m350.792969 212.175781c-5.527344 0-10.011719 4.484375-10.011719 10.007813 0 5.527344 4.484375 10.007812 10.011719 10.007812 5.523437 0 10.007812-4.480468 10.007812-10.007812 0-5.523438-4.484375-10.007813-10.007812-10.007813zm0 0"/><path d="m220.683594 432.359375c-11.058594 0-20.015625 8.957031-20.015625 20.015625 0 11.0625 8.957031 20.019531 20.015625 20.019531s20.015625-8.957031 20.015625-20.019531c0-11.058594-8.957031-20.015625-20.015625-20.015625zm0 0"/><path d="m400.832031 242.203125v-10.011719h10.007813c16.558594 0 30.027344-13.46875 30.027344-30.023437v-106.089844c0-16.554687-13.46875-30.023437-30.027344-30.023437h-10.007813v-36.03125c0-16.554688-13.46875-30.023438-30.023437-30.023438h-300.25c-16.554688 0-30.027344 13.46875-30.027344 30.023438v36.03125h-10.007812c-16.554688 0-30.023438 13.46875-30.023438 30.023437v106.089844c0 16.554687 13.46875 30.023437 30.023438 30.023437h10.007812v10.011719c0 16.554687 13.472656 30.023437 30.027344 30.023437h105.046875c5.4375 0 9.902343 4.410157 9.976562 9.84375v.195313c-.390625 58.359375-10.078125 100.222656-17.863281 133.859375-2.425781 10.472656-4.714844 20.359375-6.492188 29.734375-.0625.339844-.109374.683594-.140624 1.03125-3.171876 38.007813 29.246093 69.289063 67.328124 64.652344 30.691407-3.726563 55.136719-31.535157 52.351563-64.679688-.027344-.34375-.074219-.6875-.140625-1.027343-1.882812-9.9375-4.277344-20.234376-6.8125-31.132813-7.796875-33.539063-17.5-75.277344-17.609375-132.597656v-.148438c.046875-5.363281 4.460937-9.730469 9.835937-9.730469h104.769532c16.554687 0 30.023437-13.46875 30.023437-30.023437zm-280.230469-222.1875h200.164063v10.007813c0 5.519531-4.488281 10.011718-10.007813 10.011718h-20.015624c-16.558594 0-30.027344 13.46875-30.027344 30.023438 0 5.523437-4.480469 10.007812-10.007813 10.007812-5.527343 0-10.007812-4.484375-10.007812-10.007812 0-16.589844-13.433594-30.023438-30.023438-30.023438-16.589843 0-30.027343 13.433594-30.027343 30.023438 0 5.523437-4.480469 10.007812-10.007813 10.007812s-10.007813-4.484375-10.007813-10.007812v-.171875c0-16.460938-13.394531-29.851563-29.855468-29.851563h-.339844c-5.425781 0-9.835938-4.414062-9.835938-9.839844zm-60.050781 10.007813c0-5.515626 4.488281-10.007813 10.007813-10.007813h30.023437v10.179687c0 16.460938 13.394531 29.855469 29.855469 29.855469h.339844c5.425781 0 9.839844 4.414063 9.839844 9.835938v.171875c0 16.589844 13.433593 30.023437 30.023437 30.023437s30.027344-13.433593 30.027344-30.023437c0-5.527344 4.480469-10.007813 10.007812-10.007813 5.527344 0 10.007813 4.480469 10.007813 10.007813 0 16.589844 13.433594 30.023437 30.023437 30.023437 16.589844 0 30.027344-13.433593 30.027344-30.023437 0-5.519532 4.488281-10.007813 10.007813-10.007813h20.015624c16.554688 0 30.023438-13.46875 30.023438-30.027343v-10.007813h30.027344c5.519531 0 10.007812 4.492187 10.007812 10.007813v92.078124c0 5.519532-4.488281 10.007813-10.007812 10.007813h-300.25c-5.519532 0-10.007813-4.488281-10.007813-10.007813zm-20.019531 172.144531v10.007812h-10.007812c-5.515626 0-10.007813-4.488281-10.007813-10.007812v-106.089844c0-5.515625 4.492187-10.007813 10.007813-10.007813h10.007812v36.03125c0 16.554688 13.472656 30.023438 30.027344 30.023438h300.25c16.554687 0 30.023437-13.46875 30.023437-30.023438v-36.03125h10.007813c5.519531 0 10.007812 4.492188 10.007812 10.007813v106.089844c0 5.519531-4.488281 10.007812-10.007812 10.007812h-10.007813v-10.007812c0-16.554688-13.46875-30.023438-30.023437-30.023438h-300.25c-16.554688 0-30.027344 13.46875-30.027344 30.023438zm340.285156 40.035156c0 5.515625-4.488281 10.007813-10.007812 10.007813h-104.769532c-16.3125 0-29.703124 13.261718-29.851562 29.652343v.261719c.113281 59.613281 10.105469 102.585938 18.128906 137.113281 2.441406 10.492188 4.746094 20.417969 6.542969 29.796875 1.503906 21.035156-14.039063 40.105469-34.859375 42.636719-25.378906 3.085937-46.792969-17.535156-45.003906-42.621094 1.691406-8.828125 3.894531-18.347656 6.222656-28.410156 8.007812-34.601563 17.976562-77.664063 18.382812-138.304687v-.332032c0-.03125 0-.066406 0-.101562-.167968-16.371094-13.621093-29.691406-29.996093-29.691406h-105.046875c-5.519532 0-10.007813-4.492188-10.007813-10.007813v-40.035156c0-5.519531 4.488281-10.007813 10.007813-10.007813h300.25c5.519531 0 10.007812 4.488282 10.007812 10.007813zm0 0"/><path d="m310.757812 212.175781h-40.03125c-5.53125 0-10.011718 4.484375-10.011718 10.007813 0 5.527344 4.480468 10.007812 10.011718 10.007812h40.03125c5.527344 0 10.007813-4.480468 10.007813-10.007812 0-5.523438-4.480469-10.007813-10.007813-10.007813zm0 0"/></svg>