<svg xmlns="http://www.w3.org/2000/svg" xmlns:xlink="http://www.w3.org/1999/xlink" xmlns:fi="http://pattern.flaticon.com/" x="0" y="0" width="5000" height="5000" viewBox="0 0 1750 1750"><rect x="0px" y="0px" width="100%" height="100%" opacity="1" fill="#ffffff"/><defs><path d="M41.621,5.882c-2.965-1.306-6.748-1.941-11.565-1.941h-6.87v-1.58C23.185,1.056,22.127,0,20.824,0h-9.571   C9.949,0,8.892,1.058,8.892,2.361v20.622c0,1.304,1.058,2.36,2.361,2.36h9.571c1.304,0,2.361-1.057,2.361-2.36v-1.279h0.914V29.7   h-1.935c-1.304,0-2.361,1.057-2.361,2.36v26.283c0,1.305,1.058,2.361,2.361,2.361h16.376c1.306,0,2.361-1.059,2.361-2.361V32.061   c0-1.304-1.059-2.357-2.361-2.357h-1.936v-7.931c3.195,0.188,6.365,0.998,11.229,5.563c0.447,0.419,1.027,0.64,1.617,0.64   c0.315,0,0.637-0.064,0.938-0.194c0.862-0.374,1.424-1.228,1.424-2.168v-4.311C51.814,14.858,46.441,8.005,41.621,5.882z    M36.18,55.984H24.527V34.423h1.934h7.785h1.935V55.984z M28.822,29.7v-7.208h3.061V29.7H28.822z M34.705,16.98h-13.88   c-1.305,0-2.362,1.058-2.362,2.362v1.277h-4.847V4.721h4.847v1.581c0,1.306,1.058,2.362,2.362,2.362h9.23   c4.146,0,7.311,0.504,9.662,1.54c3.162,1.394,6.949,6.201,7.342,10.399C42.462,17.432,38.81,17.061,34.705,16.98z" transform="matrix(0.9217597210880593 -0.4608798777457014 0.4608798777457014 0.9217597210880593 -11.804079931508326 25.987890930060132)" id="L1_0"/><path d="M42.629,14.199c-0.006-0.021-0.019-0.04-0.024-0.061c-0.031-0.096-0.07-0.189-0.121-0.278c0-0.004-0.002-0.007-0.004-0.01   c-0.019-0.031-0.041-0.057-0.062-0.088c-0.045-0.07-0.09-0.142-0.143-0.206c-0.04-0.046-0.086-0.085-0.129-0.127   c-0.043-0.042-0.084-0.087-0.133-0.126c-0.062-0.051-0.135-0.092-0.201-0.133c-0.033-0.02-0.062-0.045-0.096-0.063l-14.777-7.73   c-0.531-0.277-1.16-0.282-1.695-0.016l-3.266,1.635l-9.062-4.479c-0.536-0.267-1.171-0.257-1.7,0.025L0.986,7.999   C0.373,8.325-0.008,8.967,0,9.662c0.008,0.695,0.402,1.327,1.023,1.641l15.518,7.83L2,26.986c-0.034,0.02-0.061,0.043-0.094,0.062   c-0.07,0.043-0.141,0.085-0.204,0.14c-0.05,0.041-0.091,0.088-0.136,0.133c-0.041,0.044-0.084,0.08-0.121,0.125   c-0.056,0.068-0.102,0.145-0.146,0.22c-0.018,0.026-0.039,0.052-0.055,0.081c-0.002,0.003-0.002,0.005-0.004,0.007   c-0.053,0.102-0.094,0.207-0.129,0.313c-0.02,0.064-0.031,0.133-0.045,0.197c-0.011,0.062-0.027,0.119-0.034,0.182   c-0.007,0.066-0.001,0.135-0.001,0.199c0.001,0.057-0.004,0.107,0.001,0.164c0.009,0.084,0.029,0.164,0.049,0.248   c0.009,0.033,0.011,0.069,0.021,0.104c0.036,0.113,0.084,0.229,0.142,0.34c0.001,0.002,0.002,0.004,0.002,0.006   c0.005,0.009,0.012,0.013,0.015,0.021c0.069,0.125,0.157,0.24,0.255,0.349c0.029,0.032,0.059,0.062,0.09,0.092   c0.083,0.079,0.175,0.149,0.273,0.215c0.031,0.021,0.061,0.043,0.094,0.062c0.012,0.006,0.021,0.018,0.033,0.021l18.472,9.893   c0.08,0.043,0.165,0.064,0.247,0.097c0.053,0.02,0.103,0.045,0.157,0.061c0.156,0.041,0.315,0.064,0.472,0.064   c0.002,0,0.004,0,0.004,0c0.15,0,0.307-0.021,0.459-0.062c0.051-0.012,0.098-0.035,0.146-0.055   c0.078-0.024,0.158-0.048,0.234-0.085l18.357-9.321c0.916-0.467,1.282-1.586,0.814-2.502c-0.021-0.043-0.052-0.078-0.076-0.119   c-0.113-0.526-0.449-1.006-0.972-1.27l-9.215-4.648l10.619-5.917c0.004-0.002,0.008-0.004,0.012-0.006l0.019-0.009   c0.021-0.015,0.043-0.033,0.065-0.048c0.077-0.049,0.152-0.098,0.229-0.158c0.041-0.034,0.073-0.077,0.112-0.116   c0.049-0.047,0.099-0.091,0.14-0.143c0.049-0.064,0.09-0.131,0.131-0.199c0.02-0.034,0.045-0.062,0.062-0.099   c0.002-0.003,0.003-0.007,0.004-0.01c0.044-0.081,0.072-0.166,0.104-0.253c0.074-0.219,0.104-0.443,0.098-0.666   c0-0.049,0.006-0.096,0-0.142C42.689,14.433,42.665,14.315,42.629,14.199z M5.905,9.595l6.222-3.318l5.892,2.912l-6.07,3.456   L5.905,9.595z M36.043,28.972l-14.662,7.444L6.817,28.617l13.776-7.442L36.043,28.972z M27.1,20.289l-5.674-2.861l-5.489-2.77   l6.926-3.942l3.191-1.599l10.881,5.691L27.1,20.289z" transform="matrix(1.022425405942473 0.4935846685951037 -0.4935846685951037 1.022425405942473 37.55574971232628 276.79012111590487)" id="L1_1"/><path d="M59.859,22.028H13.831v-3.411c0-1.367,0.738-2.274,1.227-2.274h6.515c0.489,0,1.227,0.907,1.227,2.274   c0,1.256,1.018,2.274,2.274,2.274s2.273-1.019,2.273-2.274c0-3.761-2.59-6.821-5.773-6.821h-6.516   c-3.184,0-5.773,3.061-5.773,6.821v3.411H5.7c-3.144,0-5.7,2.357-5.7,5.257c0,2.538,1.961,4.662,4.559,5.149   c0.473,0.205,0.979,0.347,1.51,0.405l3.095,14.366c0.14,3.642,3.144,6.558,6.815,6.558H49.58c3.642,0,6.625-2.865,6.812-6.46   l4.367-14.769c0.074-0.027,0.142-0.066,0.212-0.099c2.612-0.479,4.588-2.605,4.588-5.153   C65.558,24.386,63.001,22.028,59.859,22.028z M51.854,46.614v0.328c0,1.255-1.021,2.272-2.273,2.272H15.978   c-1.254,0-2.274-1.021-2.274-2.272v-0.241l-3.049-14.158h45.358L51.854,46.614z M59.859,27.995h-0.342H6.04H5.698   c-0.648,0-1.152-0.382-1.152-0.71s0.504-0.71,1.152-0.71h54.16c0.648,0,1.152,0.382,1.152,0.71S60.507,27.995,59.859,27.995z" transform="matrix(0.9152061343193054 0 0 0.9152061343193054 123 258.0000017316522)" id="L1_2"/><path d="M215.278,103.054c-3.612-3.595-19.526-18.95-33.847-24.362c6.282-13.951,6.685-36.066,6.69-41.157   c0.005-4.297-3.802-8.11-8.104-8.099c-5.102,0-27.201,0.408-41.141,6.69c-5.428-14.31-20.772-30.236-24.367-33.836   c-3.04-3.051-8.425-3.051-11.455,0C99.453,5.89,84.11,21.816,78.682,36.126c-13.951-6.282-36.061-6.69-41.152-6.69   c-4.302-0.005-8.11,3.802-8.104,8.099c0.005,5.096,0.413,27.206,6.695,41.157c-14.31,5.423-30.236,20.766-33.836,24.362   c-3.046,3.035-3.046,8.42,0,11.455c3.601,3.601,19.526,18.939,33.836,24.362c-6.282,13.946-6.69,36.066-6.695,41.152   c0,4.302,3.802,8.093,8.104,8.093c5.096-0.011,27.201-0.402,41.152-6.685c5.428,14.31,20.772,30.241,24.372,33.842   c3.035,3.051,8.414,3.051,11.455,0c3.595-3.601,18.939-19.532,24.367-33.842c13.94,6.282,36.066,6.685,41.141,6.685   c4.302,0,8.11-3.791,8.104-8.093c-0.011-5.102-0.408-27.206-6.69-41.152c14.321-5.417,30.236-20.755,33.847-24.362   C218.324,111.474,218.324,106.083,215.278,103.054z M142.563,52.618c3.389-3.394,16.41-5.901,29.094-6.706   c-0.81,12.673-3.307,25.683-6.717,29.088c-6.168,6.173-16.203,6.173-22.371,0C136.395,68.826,136.395,58.785,142.563,52.618z    M108.781,19.863c8.392,9.535,15.817,20.5,15.817,25.313c0,8.724-7.103,15.822-15.817,15.822c-8.724,0-15.822-7.098-15.822-15.822   C92.959,40.374,100.389,29.404,108.781,19.863z M19.858,108.787c9.535-8.392,20.505-15.828,25.319-15.828   c8.724,0,15.822,7.103,15.822,15.828s-7.098,15.828-15.822,15.828C40.38,124.614,29.409,117.179,19.858,108.787z M74.999,164.945   L74.999,164.945c-3.399,3.394-16.415,5.901-29.099,6.706c0.805-12.673,3.312-25.689,6.717-29.088   c6.168-6.173,16.203-6.173,22.376,0C81.167,148.742,81.167,158.783,74.999,164.945z M74.994,74.994   c-6.168,6.173-16.208,6.173-22.376,0c-3.399-3.394-5.896-16.41-6.712-29.099c12.673,0.81,25.683,3.318,29.094,6.723   C81.167,58.785,81.167,68.82,74.994,74.994z M108.77,197.699c-8.387-9.529-15.811-20.505-15.811-25.313   c0-8.724,7.098-15.817,15.822-15.817s15.817,7.098,15.817,15.817C124.603,177.188,117.174,188.159,108.77,197.699z    M108.781,134.726c-14.299,0-25.95-11.645-25.95-25.944s11.64-25.95,25.95-25.95c14.299,0,25.939,11.64,25.939,25.95   C134.72,123.081,123.081,134.726,108.781,134.726z M142.563,164.951c-6.173-6.168-6.173-16.203,0-22.382   c6.168-6.162,16.203-6.162,22.371,0c3.399,3.389,5.896,16.426,6.706,29.11C158.978,170.857,145.963,168.35,142.563,164.951z    M172.38,124.614c-8.719,0-15.811-7.103-15.811-15.828s7.103-15.828,15.811-15.828c4.808,0,15.773,7.435,25.324,15.828   C188.17,117.179,177.199,124.614,172.38,124.614z" transform="matrix(0.27578219771385193 0 0 0.27578219771385193 43 207)" fill="#010002" id="L1_3"/><path d="M46.088,11.731L25.081,0.272c-0.667-0.363-1.473-0.363-2.139,0L1.649,11.889c-0.022,0.012-0.039,0.03-0.06,0.044   C1.458,12.01,1.336,12.1,1.223,12.201c-0.021,0.02-0.044,0.034-0.064,0.054c-0.125,0.122-0.232,0.26-0.326,0.408   C0.81,12.7,0.792,12.74,0.77,12.78c-0.065,0.118-0.119,0.241-0.162,0.371c-0.016,0.048-0.032,0.096-0.045,0.145   c-0.039,0.15-0.062,0.307-0.069,0.469c-0.001,0.019-0.008,0.037-0.008,0.057c0,0.003,0.001,0.008,0.001,0.011   c0,0.006-0.002,0.012-0.002,0.019v19.132c0,1.23,1,2.229,2.233,2.229s2.233-0.999,2.233-2.229V17.728l16.826,9.767v18.391   c0,1.233,1,2.233,2.233,2.233s2.233-1,2.233-2.233V27.494l16.93-9.826V32.98c0,1.231,1,2.23,2.232,2.23   c1.23,0,2.23-0.999,2.23-2.23V13.85C47.639,12.854,46.985,12.021,46.088,11.731z M24.01,23.625L7.271,13.908l3.342-1.822   l16.402,9.795L24.01,23.625z M31.437,19.315L15.167,9.602l2.025-1.105l16.5,9.509L31.437,19.315z M38.149,15.418L21.79,5.99   l2.223-1.212l16.74,9.13L38.149,15.418z" transform="matrix(1.2469086647033691 0 0 1.2469086647033691 224.99999965752636 164)" id="L1_4"/><g transform="matrix(1.0624170303344727 0 0 1.0624170303344727 113.00000220472293 -10)" id="L1_5"><path d="M40.258,32.464h-0.754c-1.586,0.683-3.329,1.065-5.161,1.065s-3.574-0.383-5.162-1.065h-0.748    c-3.416,0-6.195,2.515-6.195,5.603v2.092l-6.594-5.954c-0.025-0.024-0.053-0.049-0.08-0.073v-13.4l4.264-7.335    c0.354-0.61,0.269-1.378-0.21-1.895l-0.091-0.098c-1.355-1.462-2.756-2.974-5.643-2.974c-3.142,0-5.559,2.993-5.825,3.334    c-0.41,0.526-0.449,1.252-0.1,1.82l4.404,7.168v13.577c-0.759,0.879-0.723,2.208,0.113,3.044l9.762,10.726v2.773    c0,3.089,2.779,5.604,6.195,5.604h11.825c3.416,0,6.195-2.515,6.195-5.604V38.066C46.453,34.977,43.674,32.464,40.258,32.464z     M11.327,12.946c0.68-0.624,1.661-1.318,2.558-1.318c1.136,0,1.735,0.354,2.575,1.19l-2.533,4.359L11.327,12.946z M42.933,50.869    c0,1.128-1.225,2.08-2.675,2.08H28.434c-1.45,0-2.674-0.952-2.674-2.08v-3.762v-2.769v-6.274c0-1.127,1.224-2.08,2.674-2.08    h11.825c1.45,0,2.674,0.953,2.674,2.08V50.869z"/><path d="M48.718,28.946l-1.255-9.934c-0.03-3.648-1.56-6.944-3.998-9.308V9.683C43.465,4.344,39.122,0,33.782,0    c-5.339,0-9.683,4.344-9.683,9.683v1.252c-1.779,2.219-2.852,5.025-2.878,8.077l-1.271,10.07c-0.052,0.41,0.075,0.822,0.348,1.133    s0.667,0.488,1.081,0.488h6.792c0.328,0.176,0.667,0.332,1.01,0.479c1.585,0.686,3.33,1.066,5.162,1.066    c1.831,0,3.575-0.384,5.161-1.066c0.345-0.146,0.683-0.304,1.011-0.479h6.791c0.004,0,0.004,0,0.008,0    c0.795,0,1.439-0.646,1.439-1.439C48.753,29.154,48.741,29.048,48.718,28.946z M26.981,9.684c0-0.528,0.066-1.04,0.181-1.533    c0.698-3.014,3.397-5.269,6.621-5.269c2.938,0,5.44,1.876,6.389,4.491c0.263,0.723,0.413,1.498,0.413,2.311v1.33v0.99H26.991    h-0.01V9.684z M44.481,20.566c-0.435,3.06-2.221,5.688-4.736,7.257c-1.568,0.978-3.42,1.546-5.402,1.546s-3.832-0.568-5.402-1.546    c-2.516-1.569-4.302-4.196-4.735-7.257c-0.066-0.471-0.104-0.951-0.104-1.441c0-0.488,0.037-0.968,0.104-1.439    c0.144-1.019,0.438-1.988,0.859-2.889c0.15,0.054,0.31,0.088,0.478,0.088h16.483c0.543,0,1.014-0.306,1.259-0.751    c0.604,1.079,1.021,2.277,1.198,3.552c0.065,0.472,0.104,0.951,0.104,1.439C44.586,19.615,44.549,20.096,44.481,20.566z"/></g><g transform="matrix(1.6387174129486084 0 0 1.6387174129486084 171 92)" id="L1_6"><path d="M31.84,11.352V1.488C31.84,0.667,31.172,0,30.352,0H2.527C1.706,0,1.04,0.667,1.04,1.488v9.864    c0,0.822,0.666,1.489,1.488,1.489h27.825C31.172,12.841,31.84,12.174,31.84,11.352z M28.862,9.862H28.86H4.017V2.976h24.845V9.862    z"/><path d="M34.086,5.629c-0.82,0-1.486,0.667-1.486,1.489v7.696l-14.792,0.68c-0.795,0.037-1.42,0.691-1.42,1.488l0.001,2.12    c-1.749,0.613-3.008,2.277-3.008,4.233v8.783c0,2.479,2.018,4.496,4.496,4.496c2.479,0,4.494-2.021,4.494-4.496v-8.78    c0-1.956-1.26-3.619-3.008-4.236v-0.695l14.789-0.681c0.795-0.035,1.422-0.688,1.422-1.485V7.12    C35.577,6.296,34.907,5.629,34.086,5.629z M19.397,23.338v8.783c0,0.837-0.683,1.518-1.52,1.518c-0.836,0-1.518-0.681-1.518-1.518    v-8.783c0-0.837,0.682-1.518,1.518-1.518C18.714,21.82,19.397,22.501,19.397,23.338z"/></g><g transform="matrix(0.8726764917373657 0 0 0.8726764917373657 225 -17.000003062676797)" id="L1_7"><path d="M68.152,35.617L54.333,21.797v-9.112c0-1.135-0.92-2.056-2.055-2.056c-1.137,0-2.058,0.921-2.058,2.056v5.002    l-9.748-9.748c-0.805-0.803-2.104-0.803-2.906,0L23.094,22.415c-0.802,0.804-0.802,2.104,0,2.907c0.803,0.802,2.104,0.802,2.908,0    l13.021-13.021l26.224,26.222c0.4,0.402,0.93,0.603,1.453,0.603c0.525,0,1.051-0.2,1.452-0.603    C68.954,37.72,68.954,36.417,68.152,35.617z"/><path d="M62.271,37.976L40.476,16.18c-0.387-0.386-0.908-0.603-1.453-0.603s-1.067,0.217-1.452,0.603L26.426,27.324    c0.033,0,0.066-0.008,0.101-0.008c0.625,0,1.233,0.179,1.759,0.518c0.834,0.535,1.371,1.407,1.477,2.393l0.005,0.047l0.16-0.004    c0.949,0,1.847,0.41,2.466,1.124c0.647,0.749,0.919,1.737,0.742,2.711l-0.009,0.048l0.047,0.011    c0.959,0.244,1.746,0.9,2.157,1.802c0.41,0.9,0.393,1.927-0.053,2.812l-0.021,0.043l0.041,0.023    c0.604,0.357,1.062,0.891,1.327,1.52c0.603-0.67,1.441-1.122,2.396-1.213c1.878,0.179,3.331,1.763,3.331,3.658v7.812    c0,1.252,0.472,2.447,1.323,3.373c0.938,1.014,2.267,1.596,3.646,1.596h10.637c2.74,0,4.971-2.229,4.971-4.969V39.984    c-0.001-0.312-0.032-0.629-0.094-0.943C62.759,38.636,62.562,38.267,62.271,37.976z"/><path d="M34.936,41.271c-0.078-0.537-0.396-1.014-0.863-1.291l-1.209-0.715l0.631-1.259c0.242-0.485,0.254-1.057,0.025-1.553    c-0.227-0.495-0.664-0.86-1.192-0.995l-1.361-0.348l0.251-1.383c0.097-0.535-0.054-1.087-0.41-1.498s-0.88-0.638-1.425-0.62    l-1.405,0.052l-0.148-1.398c-0.059-0.541-0.358-1.027-0.817-1.321c-0.457-0.296-1.023-0.366-1.54-0.193l-1.334,0.444l-0.537-1.299    c-0.208-0.504-0.633-0.885-1.155-1.039c-0.522-0.152-1.086-0.061-1.533,0.25l-1.154,0.803l-0.882-1.096    c-0.343-0.424-0.857-0.671-1.4-0.671c-0.546,0-1.061,0.247-1.402,0.671l-0.881,1.095l-1.154-0.803    c-0.447-0.31-1.011-0.401-1.534-0.248c-0.521,0.153-0.947,0.534-1.155,1.038l-0.536,1.299L9.482,28.75    c-0.517-0.173-1.084-0.103-1.541,0.193c-0.459,0.294-0.758,0.779-0.816,1.321l-0.15,1.397l-1.404-0.051    c-0.54-0.015-1.069,0.208-1.425,0.62c-0.356,0.411-0.508,0.961-0.411,1.498l0.251,1.383l-1.362,0.347    c-0.527,0.136-0.966,0.5-1.191,0.996c-0.228,0.495-0.217,1.065,0.027,1.553l0.631,1.257l-1.21,0.717    c-0.468,0.277-0.786,0.752-0.863,1.291c-0.078,0.539,0.093,1.086,0.465,1.482l0.958,1.025l-0.958,1.029    c-0.372,0.396-0.543,0.94-0.465,1.479c0.077,0.539,0.396,1.017,0.863,1.291l1.21,0.717L1.46,49.554    c-0.244,0.485-0.254,1.061-0.027,1.553c0.226,0.496,0.663,0.861,1.191,0.996l1.362,0.35l-0.251,1.383    c-0.097,0.535,0.055,1.086,0.411,1.498s0.881,0.639,1.425,0.619L6.976,55.9l0.15,1.396c0.059,0.541,0.357,1.026,0.815,1.322    c0.459,0.295,1.025,0.362,1.542,0.192l1.333-0.444l0.536,1.299c0.208,0.504,0.634,0.888,1.155,1.037    c0.523,0.155,1.087,0.063,1.534-0.248l1.154-0.802l0.882,1.095c0.341,0.424,0.855,0.67,1.401,0.67c0.543,0,1.06-0.246,1.4-0.67    l0.882-1.097l1.154,0.804c0.447,0.312,1.01,0.401,1.533,0.248c0.522-0.149,0.947-0.533,1.155-1.037l0.537-1.299l1.334,0.444    c0.517,0.172,1.083,0.103,1.54-0.194c0.459-0.294,0.759-0.779,0.817-1.322l0.148-1.396l1.405,0.054    c0.538,0.019,1.068-0.209,1.425-0.621c0.356-0.41,0.508-0.961,0.41-1.498l-0.251-1.383l1.361-0.349    c0.528-0.135,0.967-0.5,1.192-0.996c0.229-0.492,0.217-1.063-0.025-1.553l-0.631-1.258l1.209-0.717    c0.469-0.275,0.786-0.754,0.863-1.293c0.077-0.537-0.094-1.082-0.465-1.479l-0.958-1.029l0.958-1.025    C34.842,42.357,35.013,41.81,34.936,41.271z M6.862,41.001c0-0.811,0.594-1.357,1.402-1.357c1.185,0,1.329,1.519,2.961,1.519    c0.681,0,1.286-0.229,1.286-0.867c0-0.418-0.303-0.592-0.909-0.767l-2.21-0.635c-1.663-0.478-2.572-1.459-2.572-2.918    c0-1.733,1.155-3.368,4.045-3.368c1.923,0,4.406,0.464,4.406,2.211c0,0.809-0.62,1.314-1.444,1.314    c-1.112,0-1.127-1.271-2.773-1.271c-0.563,0-1.084,0.215-1.084,0.691c0,0.463,0.404,0.666,1.112,0.853l1.72,0.463    c1.747,0.478,2.946,1.286,2.946,3.092c0,2.472-2.124,3.539-4.319,3.539C7.932,43.501,6.862,41.943,6.862,41.001z M14.635,54.954    H9.723c-1.286,0-1.893-0.593-1.893-1.979v-6.818c0-1.11,0.635-1.79,1.662-1.79c1.025,0,1.661,0.68,1.661,1.79v6.111h3.481    c0.852,0,1.43,0.49,1.43,1.344C16.063,54.463,15.487,54.954,14.635,54.954z M17.136,38.054c0-3.64,2.616-5.446,5.374-5.446    c2.76,0,5.374,1.807,5.374,5.446c0,3.771-2.584,5.447-5.374,5.447C19.722,43.501,17.136,41.827,17.136,38.054z M23.146,54.954    H20.33c-1.286,0-1.894-0.593-1.894-1.979v-6.442c0-1.388,0.607-1.979,1.894-1.979h2.816c3.452,0,4.984,2.312,4.984,5.201    S26.598,54.954,23.146,54.954z"/><path d="M22.41,47.152h-0.737v5.201h0.737c1.921,0,2.397-0.953,2.397-2.602C24.807,48.105,24.33,47.152,22.41,47.152z"/><path d="M24.562,38.054c0-1.688-0.664-2.846-2.053-2.846c-1.387,0-2.05,1.156-2.05,2.846c0,1.691,0.663,2.848,2.05,2.848    C23.897,40.902,24.562,39.747,24.562,38.054z"/></g><g transform="matrix(1.1633808068930789 0.4886199418281235 -0.4886199418281235 1.1633808068930789 262.93244782454514 225.173497732705)" id="L1_8"><path d="M50.63,37.416h1.638v-0.553c0-1.098,0.166-2.156,0.465-3.158l-7.687-7.688v-9.111c0-1.135-0.922-2.057-2.057-2.057    c-1.137,0-2.057,0.922-2.057,2.057v5l-9.749-9.748c-0.803-0.801-2.105-0.801-2.907,0L0.603,39.835    c-0.804,0.804-0.804,2.104,0,2.904c0.802,0.805,2.104,0.805,2.905,0l26.224-26.223L50.63,37.416z"/><path d="M52.268,47.355l-18.929,0.012l-2.309,0.002c-1.607,0-3.033-0.768-3.943-1.953c-0.508-0.662-0.852-1.452-0.975-2.313    c0.01-1.246,0.135-5.668,5.408-5.671l16.686-0.011L31.186,20.398c-0.387-0.385-0.909-0.602-1.453-0.602    c-0.546,0-1.067,0.217-1.454,0.602L6.483,42.193c-0.291,0.291-0.486,0.662-0.564,1.066c-0.061,0.312-0.092,0.631-0.092,0.94    v10.637c0,2.74,2.229,4.972,4.969,4.972h37.873c2.74,0,4.97-2.23,4.97-4.972v-1.592c-0.871-1.574-1.371-3.387-1.371-5.311V47.355z    "/><path d="M63.273,28.77c-4.463,0-8.095,3.631-8.095,8.094v3.465l-24.154,0.021c-1.136,0-2.056,0.92-2.055,2.055    c0,1.139,0.922,2.057,2.057,2.057h0.001l24.149-0.018v3.498c0,4.463,3.632,8.094,8.095,8.094s8.095-3.631,8.095-8.094V36.863    C71.366,32.4,67.735,28.77,63.273,28.77z M67.255,47.938c0,2.195-1.785,3.981-3.981,3.981c-2.195,0-3.981-1.786-3.981-3.981    V36.863c0-2.197,1.786-3.984,3.981-3.984c2.194,0,3.981,1.787,3.981,3.984V47.938z"/></g><g transform="matrix(0.8087561130523682 0 0 0.8087561130523682 255 58.00000192513971)" id="L1_9"><path d="M50.549,28.382V19.27c0-1.136-0.92-2.056-2.056-2.056s-2.056,0.92-2.056,2.056v5.001l-9.749-9.748    c-0.805-0.802-2.104-0.802-2.906,0L21.03,27.276c-0.803,0.803-0.803,2.104,0,2.907c0.802,0.803,2.104,0.803,2.906,0l11.301-11.301    L61.46,45.106c0.4,0.4,0.929,0.603,1.453,0.603c0.526,0,1.054-0.199,1.453-0.603c0.803-0.803,0.803-2.104,0-2.907L50.549,28.382z"/><path d="M58.486,44.559L36.689,22.763c-0.385-0.385-0.907-0.603-1.452-0.603c-0.546,0-1.068,0.218-1.453,0.603l-8.376,8.375    c5.544,2.765,9.515,8.215,10.199,14.648c1.695,0.338,2.96,1.834,2.96,3.604v7.812c0,1.252,0.47,2.448,1.323,3.373    c0.938,1.016,2.268,1.598,3.646,1.598h10.638c2.74,0,4.969-2.229,4.969-4.971V46.566c0-0.312-0.027-0.629-0.092-0.941    C58.973,45.22,58.776,44.85,58.486,44.559z"/><path d="M73.984,20.866l-4.536-9.409c-0.245-0.508-0.688-0.894-1.228-1.065c-0.537-0.172-1.121-0.115-1.615,0.156l-9.153,5.033    c-0.719,0.396-1.134,1.183-1.056,2s0.638,1.509,1.421,1.759l2.315,0.741c-0.271,1.163-0.565,2.287-0.92,3.348    c-1.094,3.254-2.255,5.807-3.42,7.821l6.161,5.782c3.953-4.561,6.502-10.49,7.747-13.892l1.807,0.576    c0.779,0.251,1.637,0.011,2.176-0.609c0.188-0.214,0.322-0.461,0.408-0.722C74.247,21.893,74.217,21.349,73.984,20.866z"/><path d="M16.7,31.521C7.491,31.521,0,39.014,0,48.223c0,4.461,1.737,8.653,4.892,11.811c0.802,0.803,2.104,0.803,2.907-0.002    c0.803-0.804,0.803-2.104,0-2.906c-2.377-2.377-3.687-5.539-3.687-8.901c0-6.939,5.647-12.589,12.589-12.589    s12.59,5.646,12.59,12.589c0,3.362-1.31,6.524-3.687,8.901c-0.804,0.804-0.804,2.104,0,2.906c0.401,0.4,0.928,0.604,1.453,0.604    c0.526,0,1.052-0.202,1.453-0.603c3.155-3.154,4.893-7.351,4.893-11.812C33.401,39.014,25.909,31.521,16.7,31.521z"/><path d="M14.959,61.267h-3.457v-0.028l2.629-1.654c1.292-0.812,1.902-1.687,1.902-2.902c0-1.613-1.075-3.297-4.167-3.297    c-2.586,0-3.95,1.479-3.95,2.875c0,0.826,0.377,1.406,1.423,1.406c1.64,0,0.784-2.02,2.439-2.02c0.784,0,1.264,0.464,1.264,1.178    c0,0.596-0.261,1.002-0.973,1.494l-1.379,0.958C8.017,61.136,7.8,61.6,7.8,62.502c0,0.625,0.464,1.205,1.233,1.205h5.925    c0.872,0,1.234-0.448,1.234-1.219C16.192,61.717,15.83,61.267,14.959,61.267z"/><path d="M23.918,59.365v-4.531c0-0.942-0.61-1.539-1.7-1.539c-0.755,0-1.176,0.334-2.003,1.322l-3.035,3.658    c-0.64,0.77-0.872,1.266-0.872,1.803c0,0.871,0.378,1.554,1.366,1.554h3.427v0.696c0,0.959,0.464,1.566,1.409,1.566    c0.945,0,1.409-0.607,1.409-1.566v-0.696c0.856,0,1.394-0.246,1.394-1.134C25.312,59.626,24.774,59.365,23.918,59.365z"/><path d="M16.7,49.385c0.125,0,0.25-0.017,0.371-0.041c0.038-0.009,0.072-0.021,0.109-0.031c0.084-0.021,0.167-0.05,0.249-0.086    c0.043-0.019,0.083-0.041,0.124-0.062c0.07-0.037,0.138-0.08,0.203-0.127c0.042-0.029,0.082-0.062,0.121-0.098    c0.026-0.021,0.054-0.039,0.079-0.062c0.036-0.033,0.063-0.074,0.095-0.111c0.022-0.022,0.05-0.044,0.07-0.069l5.332-6.844    c0.61-0.783,0.47-1.914-0.313-2.523c-0.783-0.608-1.913-0.472-2.524,0.312l-4.063,5.214l-1.887-1.938    c-0.693-0.713-1.832-0.729-2.543-0.035c-0.712,0.691-0.729,1.83-0.036,2.543l3.326,3.422c0.029,0.027,0.062,0.049,0.092,0.076    c0.033,0.027,0.058,0.062,0.093,0.089c0.018,0.014,0.039,0.024,0.058,0.038c0.036,0.025,0.073,0.049,0.11,0.07    c0.061,0.037,0.122,0.068,0.186,0.101c0.037,0.02,0.075,0.034,0.113,0.05c0.071,0.025,0.143,0.047,0.216,0.064    c0.033,0.009,0.065,0.02,0.098,0.021C16.484,49.374,16.591,49.385,16.7,49.385z"/><circle cx="16" cy="38" r="1"/><circle cx="7" cy="47" r="1"/><circle cx="26" cy="47" r="1"/></g><g transform="matrix(1.1994571569654608 0.39981903242493283 -0.39981903242493283 1.1994571569654608 -11.921235530332368 76.47510434420279)" id="L1_10"><path d="M41.408,0H13.765c-0.727,0-1.314,0.589-1.314,1.314v5.341H6.289c-0.727,0-1.315,0.588-1.315,1.314v34.507    c0,0.726,0.589,1.314,1.315,1.314h29.468h5.652c0.727,0,1.314-0.589,1.314-1.314V1.315C42.724,0.589,42.134,0,41.408,0z     M34.44,41.16H7.602V9.284H34.44V41.16z M40.095,41.16h-3.023V7.97c0-0.726-0.59-1.314-1.312-1.314h-20.68V2.63h25.016V41.16z"/><rect x="9px" y="12px" width="4px" height="6px"/><rect x="9px" y="21px" width="4px" height="6px"/><rect x="9px" y="31px" width="4px" height="6px"/><rect x="15px" y="12px" width="4px" height="6px"/><rect x="15px" y="21px" width="4px" height="6px"/><rect x="15px" y="31px" width="4px" height="6px"/><rect x="22px" y="12px" width="4px" height="6px"/><rect x="22px" y="21px" width="4px" height="6px"/><rect x="22px" y="31px" width="4px" height="6px"/><rect x="28px" y="12px" width="4px" height="6px"/><rect x="28px" y="21px" width="4px" height="6px"/><rect x="28px" y="31px" width="4px" height="6px"/><path d="M41.408,44.256H5.473c-0.726,0-1.314,0.589-1.314,1.314c0,0.727,0.588,1.312,1.314,1.312h35.935    c0.726,0,1.315-0.589,1.315-1.312C42.724,44.845,42.134,44.256,41.408,44.256z"/></g><g transform="matrix(0.9136840212938616 -0.2451347452917646 0.2451347452917646 0.9136840212938616 66.24357860052719 99.96402087571049)" id="L1_11"><path d="M67.682,30.152L53.396,19.15V7.685c0-1.404-1.14-2.544-2.544-2.544s-2.544,1.14-2.544,2.544v7.547L35.888,5.669    c-0.914-0.704-2.188-0.704-3.104,0L0.991,30.152c-1.112,0.856-1.32,2.453-0.463,3.565c0.857,1.113,2.454,1.32,3.567,0.464    l2.793-2.15v28.961c0,1.402,1.14,2.543,2.544,2.543h49.491c1.402,0,2.545-1.141,2.545-2.543V31.785l3.111,2.396    c0.463,0.356,1.008,0.529,1.549,0.529c0.763,0,1.517-0.343,2.019-0.993C69.004,32.604,68.797,31.008,67.682,30.152z     M34.337,56.205c-9.247,0-16.744-7.498-16.744-16.743c0-9.248,7.497-16.745,16.744-16.745c9.249,0,16.745,7.497,16.745,16.745    C51.082,48.707,43.586,56.205,34.337,56.205z"/><path d="M36.024,37.283c-2.568-0.969-3.627-1.604-3.627-2.603c0-0.846,0.635-1.692,2.601-1.692c2.175,0,3.566,0.695,4.354,1.027    L40.23,30.6c-0.998-0.483-2.357-0.906-4.386-0.997v-2.66h-2.962v2.872c-3.234,0.634-5.107,2.721-5.107,5.381    c0,2.933,2.205,4.443,5.441,5.532c2.236,0.757,3.206,1.479,3.206,2.629c0,1.21-1.181,1.875-2.901,1.875    c-1.965,0-3.749-0.636-5.019-1.329l-0.906,3.535c1.148,0.665,3.113,1.209,5.139,1.301v2.873h2.963v-3.084    c3.477-0.604,5.381-2.902,5.381-5.594C41.073,40.213,39.623,38.551,36.024,37.283z"/></g><g transform="matrix(0.16638842225074768 0 0 0.16638842225074768 131 187.99999977657808)" id="L1_12"><circle cx="22" cy="282" r="22" fill="#010002"/><path d="M11.732,211.168c-6.173,0-11.177,5.004-11.177,11.177s5.004,11.199,11.177,11.199    c32.759,0,59.416,26.641,59.416,59.405c0,6.173,5.004,11.188,11.177,11.188c6.179,0,11.188-5.015,11.188-11.188    C93.508,247.849,56.827,211.168,11.732,211.168z" fill="#010002"/><path d="M11.732,156.196c-6.173,0-11.177,5.004-11.177,11.177c0,6.179,5.004,11.188,11.177,11.188    c63.077,0,114.389,51.307,114.389,114.373c0,6.173,4.998,11.183,11.177,11.183c6.173,0,11.177-5.009,11.177-11.183    C148.476,217.532,87.139,156.196,11.732,156.196z" fill="#010002"/><path d="M357.33,202.879l-75.162-75.157V78.161c0-6.173-5.004-11.183-11.177-11.183    c-6.19,0-11.194,5.009-11.194,11.183v27.206l-53.025-53.02c-4.357-4.368-11.444-4.368-15.795,0L88.771,154.564    c6.706,3.682,13.07,7.881,19.097,12.526l91.028-91.028l142.629,142.639c2.176,2.17,5.053,3.28,7.903,3.28    c2.855,0,5.733-1.088,7.903-3.28C361.692,214.323,361.692,207.241,357.33,202.879z" fill="#010002"/><path d="M325.343,215.71L206.799,97.165c-2.105-2.099-4.939-3.28-7.903-3.28s-5.798,1.18-7.903,3.28    l-75.897,75.886c30.742,26.994,50.181,66.563,50.181,110.696c0,8.915-0.832,17.633-2.355,26.124    c4.014-1.469,7.691-3.835,10.655-7.033c4.645-5.026,7.201-11.536,7.201-18.346v-42.49c0-10.318,7.898-18.923,18.118-19.891    c10.209,0.968,18.112,9.573,18.112,19.891v42.49c0,6.81,2.551,13.32,7.196,18.346c5.102,5.526,12.33,8.692,19.82,8.692h57.872    c14.898,0,27.027-12.124,27.027-27.038v-57.855c0-1.697-0.152-3.421-0.495-5.129C327.986,219.311,326.926,217.293,325.343,215.71z    " fill="#010002"/></g><g transform="matrix(0.8261390328407288 0 0 0.8261390328407288 319 179.0000050423523)" id="L1_13"><path d="M72.024,39.34L58.206,25.523V16.41c0-1.135-0.92-2.055-2.058-2.055c-1.136,0-2.057,0.92-2.057,2.055v5.002l-9.747-9.747    c-0.804-0.804-2.104-0.804-2.906,0L22.965,30.141l1.617,4.195l18.312-18.312l26.225,26.223c0.4,0.399,0.928,0.604,1.452,0.604    c0.525,0,1.052-0.201,1.453-0.604C72.828,41.445,72.828,40.143,72.024,39.34z"/><path d="M66.144,41.7L44.349,19.904c-0.387-0.386-0.909-0.603-1.454-0.603c-0.544,0-1.066,0.217-1.453,0.603L25.531,35.815    l7.382,0.397c2.142,0.116,4.026,1.564,4.688,3.604c0.662,2.039-0.011,4.32-1.677,5.671l-6.035,4.901l2.002,7.518    c0.123,0.465,0.176,0.938,0.168,1.404h2.537c1.377,0,2.706-0.582,3.645-1.599c0.854-0.922,1.324-2.118,1.324-3.37V46.53    c0-1.896,1.453-3.479,3.33-3.659c1.878,0.18,3.331,1.764,3.331,3.659v7.812c0,1.252,0.47,2.448,1.322,3.37    c0.938,1.017,2.269,1.599,3.646,1.599h10.638c2.739,0,4.972-2.229,4.972-4.969V43.707c0-0.312-0.031-0.629-0.095-0.941    C66.63,42.36,66.434,41.99,66.144,41.7z"/><path d="M26.587,49.319l7.501-6.095c0.742-0.604,1.036-1.601,0.741-2.508c-0.295-0.908-1.12-1.543-2.074-1.595l-9.649-0.521    l-3.477-9.019c-0.345-0.892-1.201-1.48-2.158-1.48c-0.955,0-1.812,0.589-2.156,1.48l-3.479,9.019l-9.648,0.521    c-0.956,0.052-1.779,0.687-2.075,1.595c-0.296,0.909-0.001,1.906,0.741,2.508l7.5,6.095l-2.486,9.338    c-0.246,0.924,0.102,1.903,0.876,2.466c0.403,0.294,0.881,0.441,1.358,0.441c0.438,0,0.874-0.122,1.257-0.37l8.112-5.251    l8.112,5.251c0.803,0.52,1.844,0.489,2.615-0.07c0.773-0.562,1.123-1.542,0.877-2.467L26.587,49.319z"/></g></defs><g fi:class="KUsePattern"><pattern id="pattern_L1_0" width="350" height="350" patternUnits="userSpaceOnUse"><use xlink:href="#L1_0" x="-350" y="-350"/><use xlink:href="#L1_0" x="0" y="-350"/><use xlink:href="#L1_0" x="350" y="-350"/><use xlink:href="#L1_0" x="-350" y="0"/><use xlink:href="#L1_0" x="0" y="0"/><use xlink:href="#L1_0" x="350" y="0"/><use xlink:href="#L1_0" x="-350" y="350"/><use xlink:href="#L1_0" x="0" y="350"/><use xlink:href="#L1_0" x="350" y="350"/></pattern><rect x="0" y="0" width="100%" height="100%" fill="url(#pattern_L1_0)"/></g><g fi:class="KUsePattern"><pattern id="pattern_L1_1" width="350" height="350" patternUnits="userSpaceOnUse"><use xlink:href="#L1_1" x="-350" y="-350"/><use xlink:href="#L1_1" x="0" y="-350"/><use xlink:href="#L1_1" x="350" y="-350"/><use xlink:href="#L1_1" x="-350" y="0"/><use xlink:href="#L1_1" x="0" y="0"/><use xlink:href="#L1_1" x="350" y="0"/><use xlink:href="#L1_1" x="-350" y="350"/><use xlink:href="#L1_1" x="0" y="350"/><use xlink:href="#L1_1" x="350" y="350"/></pattern><rect x="0" y="0" width="100%" height="100%" fill="url(#pattern_L1_1)"/></g><g fi:class="KUsePattern"><pattern id="pattern_L1_2" width="350" height="350" patternUnits="userSpaceOnUse"><use xlink:href="#L1_2" x="-350" y="-350"/><use xlink:href="#L1_2" x="0" y="-350"/><use xlink:href="#L1_2" x="350" y="-350"/><use xlink:href="#L1_2" x="-350" y="0"/><use xlink:href="#L1_2" x="0" y="0"/><use xlink:href="#L1_2" x="350" y="0"/><use xlink:href="#L1_2" x="-350" y="350"/><use xlink:href="#L1_2" x="0" y="350"/><use xlink:href="#L1_2" x="350" y="350"/></pattern><rect x="0" y="0" width="100%" height="100%" fill="url(#pattern_L1_2)"/></g><g fi:class="KUsePattern"><pattern id="pattern_L1_3" width="350" height="350" patternUnits="userSpaceOnUse"><use xlink:href="#L1_3" x="-350" y="-350"/><use xlink:href="#L1_3" x="0" y="-350"/><use xlink:href="#L1_3" x="350" y="-350"/><use xlink:href="#L1_3" x="-350" y="0"/><use xlink:href="#L1_3" x="0" y="0"/><use xlink:href="#L1_3" x="350" y="0"/><use xlink:href="#L1_3" x="-350" y="350"/><use xlink:href="#L1_3" x="0" y="350"/><use xlink:href="#L1_3" x="350" y="350"/></pattern><rect x="0" y="0" width="100%" height="100%" fill="url(#pattern_L1_3)"/></g><g fi:class="KUsePattern"><pattern id="pattern_L1_4" width="350" height="350" patternUnits="userSpaceOnUse"><use xlink:href="#L1_4" x="-350" y="-350"/><use xlink:href="#L1_4" x="0" y="-350"/><use xlink:href="#L1_4" x="350" y="-350"/><use xlink:href="#L1_4" x="-350" y="0"/><use xlink:href="#L1_4" x="0" y="0"/><use xlink:href="#L1_4" x="350" y="0"/><use xlink:href="#L1_4" x="-350" y="350"/><use xlink:href="#L1_4" x="0" y="350"/><use xlink:href="#L1_4" x="350" y="350"/></pattern><rect x="0" y="0" width="100%" height="100%" fill="url(#pattern_L1_4)"/></g><g fi:class="KUsePattern"><pattern id="pattern_L1_5" width="350" height="350" patternUnits="userSpaceOnUse"><use xlink:href="#L1_5" x="-350" y="-350"/><use xlink:href="#L1_5" x="0" y="-350"/><use xlink:href="#L1_5" x="350" y="-350"/><use xlink:href="#L1_5" x="-350" y="0"/><use xlink:href="#L1_5" x="0" y="0"/><use xlink:href="#L1_5" x="350" y="0"/><use xlink:href="#L1_5" x="-350" y="350"/><use xlink:href="#L1_5" x="0" y="350"/><use xlink:href="#L1_5" x="350" y="350"/></pattern><rect x="0" y="0" width="100%" height="100%" fill="url(#pattern_L1_5)"/></g><g fi:class="KUsePattern"><pattern id="pattern_L1_6" width="350" height="350" patternUnits="userSpaceOnUse"><use xlink:href="#L1_6" x="-350" y="-350"/><use xlink:href="#L1_6" x="0" y="-350"/><use xlink:href="#L1_6" x="350" y="-350"/><use xlink:href="#L1_6" x="-350" y="0"/><use xlink:href="#L1_6" x="0" y="0"/><use xlink:href="#L1_6" x="350" y="0"/><use xlink:href="#L1_6" x="-350" y="350"/><use xlink:href="#L1_6" x="0" y="350"/><use xlink:href="#L1_6" x="350" y="350"/></pattern><rect x="0" y="0" width="100%" height="100%" fill="url(#pattern_L1_6)"/></g><g fi:class="KUsePattern"><pattern id="pattern_L1_7" width="350" height="350" patternUnits="userSpaceOnUse"><use xlink:href="#L1_7" x="-350" y="-350"/><use xlink:href="#L1_7" x="0" y="-350"/><use xlink:href="#L1_7" x="350" y="-350"/><use xlink:href="#L1_7" x="-350" y="0"/><use xlink:href="#L1_7" x="0" y="0"/><use xlink:href="#L1_7" x="350" y="0"/><use xlink:href="#L1_7" x="-350" y="350"/><use xlink:href="#L1_7" x="0" y="350"/><use xlink:href="#L1_7" x="350" y="350"/></pattern><rect x="0" y="0" width="100%" height="100%" fill="url(#pattern_L1_7)"/></g><g fi:class="KUsePattern"><pattern id="pattern_L1_8" width="350" height="350" patternUnits="userSpaceOnUse"><use xlink:href="#L1_8" x="-350" y="-350"/><use xlink:href="#L1_8" x="0" y="-350"/><use xlink:href="#L1_8" x="350" y="-350"/><use xlink:href="#L1_8" x="-350" y="0"/><use xlink:href="#L1_8" x="0" y="0"/><use xlink:href="#L1_8" x="350" y="0"/><use xlink:href="#L1_8" x="-350" y="350"/><use xlink:href="#L1_8" x="0" y="350"/><use xlink:href="#L1_8" x="350" y="350"/></pattern><rect x="0" y="0" width="100%" height="100%" fill="url(#pattern_L1_8)"/></g><g fi:class="KUsePattern"><pattern id="pattern_L1_9" width="350" height="350" patternUnits="userSpaceOnUse"><use xlink:href="#L1_9" x="-350" y="-350"/><use xlink:href="#L1_9" x="0" y="-350"/><use xlink:href="#L1_9" x="350" y="-350"/><use xlink:href="#L1_9" x="-350" y="0"/><use xlink:href="#L1_9" x="0" y="0"/><use xlink:href="#L1_9" x="350" y="0"/><use xlink:href="#L1_9" x="-350" y="350"/><use xlink:href="#L1_9" x="0" y="350"/><use xlink:href="#L1_9" x="350" y="350"/></pattern><rect x="0" y="0" width="100%" height="100%" fill="url(#pattern_L1_9)"/></g><g fi:class="KUsePattern"><pattern id="pattern_L1_10" width="350" height="350" patternUnits="userSpaceOnUse"><use xlink:href="#L1_10" x="-350" y="-350"/><use xlink:href="#L1_10" x="0" y="-350"/><use xlink:href="#L1_10" x="350" y="-350"/><use xlink:href="#L1_10" x="-350" y="0"/><use xlink:href="#L1_10" x="0" y="0"/><use xlink:href="#L1_10" x="350" y="0"/><use xlink:href="#L1_10" x="-350" y="350"/><use xlink:href="#L1_10" x="0" y="350"/><use xlink:href="#L1_10" x="350" y="350"/></pattern><rect x="0" y="0" width="100%" height="100%" fill="url(#pattern_L1_10)"/></g><g fi:class="KUsePattern"><pattern id="pattern_L1_11" width="350" height="350" patternUnits="userSpaceOnUse"><use xlink:href="#L1_11" x="-350" y="-350"/><use xlink:href="#L1_11" x="0" y="-350"/><use xlink:href="#L1_11" x="350" y="-350"/><use xlink:href="#L1_11" x="-350" y="0"/><use xlink:href="#L1_11" x="0" y="0"/><use xlink:href="#L1_11" x="350" y="0"/><use xlink:href="#L1_11" x="-350" y="350"/><use xlink:href="#L1_11" x="0" y="350"/><use xlink:href="#L1_11" x="350" y="350"/></pattern><rect x="0" y="0" width="100%" height="100%" fill="url(#pattern_L1_11)"/></g><g fi:class="KUsePattern"><pattern id="pattern_L1_12" width="350" height="350" patternUnits="userSpaceOnUse"><use xlink:href="#L1_12" x="-350" y="-350"/><use xlink:href="#L1_12" x="0" y="-350"/><use xlink:href="#L1_12" x="350" y="-350"/><use xlink:href="#L1_12" x="-350" y="0"/><use xlink:href="#L1_12" x="0" y="0"/><use xlink:href="#L1_12" x="350" y="0"/><use xlink:href="#L1_12" x="-350" y="350"/><use xlink:href="#L1_12" x="0" y="350"/><use xlink:href="#L1_12" x="350" y="350"/></pattern><rect x="0" y="0" width="100%" height="100%" fill="url(#pattern_L1_12)"/></g><g fi:class="KUsePattern"><pattern id="pattern_L1_13" width="350" height="350" patternUnits="userSpaceOnUse"><use xlink:href="#L1_13" x="-350" y="-350"/><use xlink:href="#L1_13" x="0" y="-350"/><use xlink:href="#L1_13" x="350" y="-350"/><use xlink:href="#L1_13" x="-350" y="0"/><use xlink:href="#L1_13" x="0" y="0"/><use xlink:href="#L1_13" x="350" y="0"/><use xlink:href="#L1_13" x="-350" y="350"/><use xlink:href="#L1_13" x="0" y="350"/><use xlink:href="#L1_13" x="350" y="350"/></pattern><rect x="0" y="0" width="100%" height="100%" fill="url(#pattern_L1_13)"/></g></svg>