<svg width="650" height="728" viewBox="0 0 650 728" fill="none" xmlns="http://www.w3.org/2000/svg">
<path d="M362.889 172.947H358.891V63.4019C358.891 46.5867 352.211 30.4602 340.321 18.57C328.43 6.67986 312.304 2.12175e-05 295.489 2.01908e-10H63.402C55.076 -2.10113e-05 46.8314 1.6399 39.1391 4.82612C31.4469 8.01234 24.4575 12.6825 18.5701 18.5699C12.6826 24.4573 8.01249 31.4466 4.82623 39.1389C1.63997 46.8311 1.83851e-05 55.0756 0 63.4017V664.376C-7.87929e-06 672.702 1.6399 680.947 4.82614 688.639C8.01238 696.331 12.6825 703.321 18.5699 709.208C24.4574 715.095 31.4467 719.766 39.139 722.952C46.8312 726.138 55.0758 727.778 63.4018 727.778H295.488C312.304 727.778 328.43 721.098 340.32 709.208C352.211 697.318 358.89 681.191 358.89 664.376V250.923H362.889V172.947Z" fill="#E6E6E6"/>
<path d="M298.046 16.495H267.751C269.144 19.9106 269.676 23.6165 269.3 27.286C268.923 30.9556 267.65 34.4763 265.593 37.538C263.535 40.5997 260.756 43.1084 257.501 44.8431C254.245 46.5777 250.613 47.4852 246.924 47.4855H113.965C110.276 47.4852 106.644 46.5778 103.388 44.8431C100.133 43.1084 97.3536 40.5997 95.296 37.538C93.2384 34.4763 91.9654 30.9556 91.589 27.286C91.2126 23.6164 91.7443 19.9105 93.1375 16.4949H64.842C52.2846 16.4949 40.2415 21.4833 31.362 30.3627C22.4826 39.2421 17.4942 51.2852 17.4941 63.8426V663.935C17.4941 676.493 22.4825 688.536 31.362 697.415C40.2414 706.295 52.2845 711.283 64.8419 711.283H298.046C304.264 711.283 310.421 710.058 316.166 707.679C321.91 705.3 327.13 701.812 331.526 697.415C335.923 693.019 339.411 687.799 341.79 682.055C344.169 676.31 345.394 670.153 345.394 663.935V663.935V63.8427C345.394 57.6249 344.169 51.468 341.79 45.7235C339.411 39.979 335.923 34.7594 331.526 30.3627C327.13 25.9661 321.91 22.4785 316.165 20.0991C310.421 17.7196 304.264 16.4949 298.046 16.495V16.495Z" fill="white"/>
<path d="M326.151 487.819H46.5325C45.1597 487.817 43.8436 487.271 42.8729 486.3C41.9021 485.33 41.3561 484.014 41.3545 482.641V413.28C41.3561 411.907 41.9021 410.591 42.8729 409.62C43.8436 408.649 45.1597 408.103 46.5325 408.102H326.151C327.524 408.103 328.84 408.649 329.811 409.62C330.782 410.591 331.328 411.907 331.33 413.28V482.642C331.328 484.014 330.781 485.33 329.811 486.301C328.84 487.271 327.524 487.817 326.151 487.819V487.819ZM46.5325 410.173C45.7087 410.174 44.9189 410.501 44.3364 411.084C43.7539 411.666 43.4263 412.456 43.4255 413.28V482.642C43.4263 483.466 43.7539 484.255 44.3364 484.838C44.9189 485.42 45.7087 485.748 46.5325 485.749H326.151C326.975 485.748 327.765 485.42 328.348 484.838C328.93 484.255 329.258 483.466 329.258 482.642V413.28C329.258 412.456 328.93 411.666 328.348 411.084C327.765 410.501 326.975 410.174 326.151 410.173H46.5325Z" fill="#E6E6E6"/>
<path d="M82.7783 469.708C94.7894 469.708 104.526 459.971 104.526 447.96C104.526 435.949 94.7894 426.212 82.7783 426.212C70.7672 426.212 61.0303 435.949 61.0303 447.96C61.0303 459.971 70.7672 469.708 82.7783 469.708Z" fill="#E6E6E6"/>
<path d="M133.006 433.462C132.055 433.478 131.149 433.866 130.482 434.545C129.815 435.223 129.441 436.135 129.441 437.086C129.441 438.037 129.815 438.95 130.482 439.628C131.149 440.306 132.055 440.695 133.006 440.711H303.884C304.845 440.729 305.775 440.365 306.467 439.699C307.16 439.032 307.56 438.118 307.578 437.157C307.597 436.195 307.233 435.266 306.566 434.573C305.9 433.88 304.985 433.481 304.024 433.462L304.003 433.462C303.964 433.461 303.924 433.461 303.884 433.462H133.006Z" fill="#E6E6E6"/>
<path d="M133.006 455.21C132.055 455.226 131.149 455.614 130.482 456.292C129.815 456.97 129.441 457.883 129.441 458.834C129.441 459.785 129.815 460.698 130.482 461.376C131.149 462.054 132.055 462.443 133.006 462.459H303.884C304.844 462.472 305.77 462.104 306.459 461.436C307.148 460.768 307.543 459.853 307.559 458.894C307.575 457.934 307.209 457.007 306.543 456.317C305.876 455.626 304.963 455.228 304.003 455.21C303.964 455.209 303.924 455.209 303.884 455.21H133.006Z" fill="#E6E6E6"/>
<path d="M326.151 603.809H46.5325C45.1597 603.807 43.8436 603.261 42.8729 602.29C41.9021 601.32 41.3561 600.004 41.3545 598.631V529.27C41.3561 527.897 41.9021 526.581 42.8729 525.61C43.8436 524.639 45.1597 524.093 46.5325 524.092H326.151C327.524 524.093 328.84 524.639 329.811 525.61C330.782 526.581 331.328 527.897 331.33 529.27V598.632C331.328 600.004 330.781 601.32 329.811 602.291C328.84 603.261 327.524 603.807 326.151 603.809V603.809ZM46.5325 526.163C45.7087 526.164 44.9189 526.491 44.3364 527.074C43.7539 527.656 43.4263 528.446 43.4255 529.27V598.632C43.4263 599.456 43.7539 600.245 44.3364 600.828C44.9189 601.41 45.7087 601.738 46.5325 601.739H326.151C326.975 601.738 327.765 601.41 328.348 600.828C328.93 600.245 329.258 599.456 329.258 598.632V529.27C329.258 528.446 328.93 527.656 328.348 527.074C327.765 526.491 326.975 526.164 326.151 526.163H46.5325Z" fill="#E6E6E6"/>
<path d="M82.7783 585.698C94.7894 585.698 104.526 575.961 104.526 563.95C104.526 551.939 94.7894 542.202 82.7783 542.202C70.7672 542.202 61.0303 551.939 61.0303 563.95C61.0303 575.961 70.7672 585.698 82.7783 585.698Z" fill="#E6E6E6"/>
<path d="M133.006 549.452C132.055 549.468 131.149 549.857 130.482 550.535C129.815 551.213 129.441 552.125 129.441 553.076C129.441 554.027 129.815 554.94 130.482 555.618C131.149 556.296 132.055 556.685 133.006 556.701H303.884C304.844 556.714 305.77 556.346 306.459 555.678C307.148 555.01 307.543 554.095 307.559 553.136C307.575 552.176 307.209 551.249 306.543 550.559C305.876 549.868 304.963 549.47 304.003 549.452C303.964 549.451 303.924 549.451 303.884 549.452H133.006Z" fill="#E6E6E6"/>
<path d="M133.006 571.2C132.055 571.215 131.149 571.604 130.482 572.282C129.815 572.96 129.441 573.873 129.441 574.824C129.441 575.775 129.815 576.688 130.482 577.366C131.149 578.044 132.055 578.433 133.006 578.449H303.884C304.844 578.462 305.77 578.094 306.459 577.426C307.148 576.757 307.543 575.843 307.559 574.884C307.575 573.924 307.209 572.997 306.543 572.306C305.876 571.616 304.963 571.218 304.003 571.2C303.964 571.199 303.924 571.199 303.884 571.2H133.006Z" fill="#E6E6E6"/>
<path d="M180.457 343.884C154.375 343.895 129.357 333.544 110.906 315.109C92.4557 296.674 82.0841 271.664 82.0732 245.582V245.5C82.0732 245.294 82.0732 245.077 82.0852 244.871C82.3852 190.992 126.517 147.115 180.457 147.115C206.55 147.112 231.576 157.474 250.029 175.923C268.481 194.371 278.849 219.395 278.852 245.488C278.855 271.581 268.493 296.606 250.044 315.059C231.596 333.512 206.573 343.88 180.48 343.883H180.457V343.884ZM180.457 149.184C155.03 149.241 130.652 159.329 112.62 177.258C94.5884 195.186 84.36 219.506 84.1572 244.933C84.1462 245.153 84.1462 245.333 84.1462 245.497C84.1439 264.548 89.7909 283.172 100.373 299.014C110.956 314.856 125.998 327.204 143.598 334.497C161.198 341.79 180.566 343.7 199.252 339.985C217.937 336.271 235.102 327.099 248.575 313.629C262.048 300.16 271.224 282.997 274.943 264.313C278.662 245.628 276.757 226.26 269.469 208.658C262.18 191.056 249.836 176.011 233.997 165.424C218.157 154.838 199.535 149.186 180.483 149.184H180.457V149.184Z" fill="#E6E6E6"/>
<path d="M315.114 462.842C337.206 462.842 355.114 444.933 355.114 422.842C355.114 400.75 337.206 382.842 315.114 382.842C293.023 382.842 275.114 400.75 275.114 422.842C275.114 444.933 293.023 462.842 315.114 462.842Z" fill="white"/>
<path d="M301.221 440.838C301.153 440.838 301.084 440.837 301.015 440.836H279.515C276.787 440.793 274.185 439.679 272.271 437.735C270.357 435.791 269.283 433.172 269.282 430.444C269.281 427.715 270.352 425.096 272.265 423.15C274.178 421.205 276.779 420.089 279.507 420.043H301.025C301.13 420.042 301.245 420.042 301.359 420.043C304.103 420.081 306.722 421.203 308.643 423.163C310.563 425.124 311.631 427.764 311.613 430.509C311.595 433.254 310.492 435.88 308.546 437.815C306.599 439.75 303.966 440.836 301.221 440.838V440.838Z" fill="#6F34CC"/>
<path d="M649.378 725.344H325.346V727.584H649.378V725.344Z" fill="#3F3D56"/>
<path d="M345.31 535.731C345.056 535.335 344.844 534.913 344.68 534.472L339.517 520.645C338.916 519.03 338.98 517.243 339.695 515.675C340.411 514.107 341.719 512.887 343.332 512.282L458.575 469.25C460.19 468.649 461.977 468.713 463.545 469.428C465.113 470.143 466.333 471.451 466.938 473.065L472.1 486.893C472.399 487.692 472.537 488.543 472.507 489.396C472.477 490.249 472.279 491.088 471.925 491.864C471.57 492.641 471.067 493.34 470.442 493.922C469.817 494.504 469.084 494.957 468.285 495.255L353.044 538.287C351.656 538.805 350.133 538.834 348.727 538.369C347.321 537.904 346.116 536.973 345.31 535.731V535.731Z" fill="#6F34CC"/>
<path d="M458.207 465.677L411.344 484.364C409.867 484.809 408.618 485.804 407.856 487.145C407.094 488.485 406.877 490.068 407.251 491.564L412.69 513.339C412.904 514.199 413.307 515.001 413.869 515.687C414.431 516.373 415.138 516.926 415.939 517.306C416.74 517.686 417.615 517.884 418.501 517.885C419.388 517.887 420.264 517.692 421.066 517.314L468.058 495.195C469.547 494.637 470.754 493.511 471.414 492.065C472.075 490.618 472.136 488.969 471.583 487.478L465.934 469.203C465.376 467.711 464.249 466.503 462.8 465.842C461.351 465.181 459.699 465.122 458.207 465.677V465.677Z" fill="#2F2E41"/>
<path d="M543.969 601.339C542.498 601.508 541.013 601.17 539.76 600.381C538.507 599.591 537.56 598.398 537.077 596.999L496.963 480.71C496.684 479.903 496.568 479.049 496.619 478.197C496.671 477.345 496.89 476.511 497.264 475.744C497.637 474.976 498.159 474.29 498.798 473.724C499.437 473.158 500.181 472.724 500.988 472.445L514.941 467.632C516.57 467.071 518.356 467.18 519.905 467.935C521.455 468.689 522.641 470.028 523.204 471.657L563.319 587.947C563.879 589.577 563.77 591.362 563.015 592.911C562.26 594.461 560.922 595.647 559.294 596.211L545.341 601.024C544.896 601.178 544.436 601.283 543.969 601.339V601.339Z" fill="#6F34CC"/>
<path d="M526.195 469.667L541.591 517.712C542.187 519.134 542.214 520.731 541.664 522.172C541.115 523.613 540.032 524.787 538.64 525.45L518.38 535.108C517.579 535.489 516.704 535.688 515.818 535.691C514.931 535.694 514.055 535.501 513.252 535.124C512.449 534.748 511.74 534.199 511.175 533.516C510.61 532.833 510.203 532.033 509.984 531.174L497.154 480.846C496.637 479.342 496.738 477.694 497.434 476.265C498.13 474.835 499.363 473.739 500.865 473.217L518.559 465.948C520.065 465.431 521.715 465.531 523.146 466.228C524.578 466.926 525.674 468.162 526.195 469.667V469.667Z" fill="#2F2E41"/>
<path d="M479.58 726.003H464.82C463.097 726.001 461.445 725.316 460.226 724.097C459.008 722.879 458.322 721.226 458.32 719.503V596.489C458.322 594.765 459.008 593.113 460.226 591.895C461.445 590.676 463.097 589.991 464.82 589.989H479.58C481.303 589.991 482.955 590.676 484.174 591.895C485.392 593.113 486.078 594.765 486.08 596.489V719.503C486.078 721.226 485.392 722.879 484.174 724.097C482.955 725.316 481.303 726.001 479.58 726.003Z" fill="#2F2E41"/>
<path d="M508.772 726.003H494.013C492.289 726.001 490.637 725.316 489.419 724.097C488.2 722.879 487.515 721.226 487.513 719.503V596.489C487.515 594.765 488.2 593.113 489.419 591.895C490.637 590.676 492.289 589.991 494.013 589.989H508.772C510.496 589.991 512.148 590.676 513.366 591.895C514.585 593.113 515.27 594.765 515.272 596.489V719.503C515.27 721.226 514.585 722.879 513.366 724.097C512.148 725.316 510.496 726.001 508.772 726.003Z" fill="#2F2E41"/>
<path d="M520.936 610.951H453.873C452.017 610.948 450.238 610.21 448.926 608.898C447.613 607.586 446.875 605.806 446.873 603.951V495.006C446.873 484.257 451.143 473.947 458.744 466.346C466.345 458.745 476.655 454.475 487.404 454.475C498.154 454.475 508.463 458.745 516.064 466.346C523.665 473.947 527.936 484.257 527.936 495.006V603.951C527.933 605.806 527.195 607.586 525.883 608.898C524.571 610.21 522.791 610.948 520.936 610.951Z" fill="#CCCCCC"/>
<path d="M531.03 637.6H497.03V445.445L497.662 445.618C507.237 448.246 515.686 453.943 521.714 461.834C527.741 469.725 531.014 479.375 531.03 489.305V637.6Z" fill="#2F2E41"/>
<path d="M475.016 637.6H441.016V489.305C441.032 479.375 444.305 469.725 450.332 461.834C456.36 453.943 464.809 448.246 474.384 445.618L475.016 445.445V637.6Z" fill="#2F2E41"/>
<path d="M486.897 431.94C516.455 431.94 540.416 407.978 540.416 378.421C540.416 348.863 516.455 324.901 486.897 324.901C457.339 324.901 433.378 348.863 433.378 378.421C433.378 407.978 457.339 431.94 486.897 431.94Z" fill="#6F34CC"/>
<path d="M547.404 366.099C547.404 366.099 550.404 283.099 511.404 310.099C511.404 310.099 488.904 234.599 433.904 347.599L417.904 363.599C417.904 363.599 489.904 353.599 556.904 384.599L547.404 366.099Z" fill="#2F2E41"/>
<path d="M487.713 404.925C484.407 404.834 480.293 404.719 477.123 402.403C476.179 401.686 475.404 400.77 474.851 399.721C474.298 398.672 473.981 397.515 473.923 396.331C473.865 395.489 474.004 394.645 474.326 393.866C474.649 393.086 475.148 392.392 475.783 391.837C477.439 390.438 479.856 390.11 482.461 390.876L479.762 371.15L481.744 370.879L484.917 394.069L483.262 393.31C481.344 392.43 478.711 391.982 477.074 393.365C476.672 393.726 476.359 394.176 476.159 394.678C475.96 395.18 475.878 395.721 475.921 396.26C475.97 397.142 476.208 398.002 476.619 398.784C477.03 399.565 477.604 400.249 478.303 400.788C480.769 402.59 484.049 402.822 487.769 402.926L487.713 404.925Z" fill="#2F2E41"/>
<path d="M469.963 372.852H459.191V374.852H469.963V372.852Z" fill="#2F2E41"/>
<path d="M503.963 372.852H493.191V374.852H503.963V372.852Z" fill="#2F2E41"/>
<path d="M367.571 540.833C366.127 541.503 364.477 541.571 362.983 541.024C361.489 540.477 360.273 539.359 359.603 537.915L325.092 463.531C324.423 462.088 324.354 460.438 324.901 458.943C325.448 457.449 326.567 456.234 328.01 455.564C329.453 454.894 331.104 454.826 332.598 455.373C334.092 455.92 335.308 457.038 335.978 458.481L370.489 532.865C371.158 534.308 371.227 535.959 370.68 537.453C370.133 538.947 369.014 540.163 367.571 540.833Z" fill="#3F3D56"/>
<path d="M332.114 460.794C331.053 460.794 330.036 460.373 329.286 459.623C328.536 458.873 328.114 457.855 328.114 456.794V405.842H278.114C277.053 405.842 276.036 405.42 275.286 404.67C274.536 403.92 274.114 402.903 274.114 401.842C274.114 400.781 274.536 399.764 275.286 399.013C276.036 398.263 277.053 397.842 278.114 397.842H332.114C333.175 397.842 334.193 398.263 334.943 399.013C335.693 399.764 336.114 400.781 336.114 401.842V456.794C336.114 457.855 335.693 458.873 334.943 459.623C334.193 460.373 333.175 460.794 332.114 460.794V460.794Z" fill="#6F34CC"/>
<path d="M333.06 466.449C324.448 470.444 314.845 471.796 305.465 470.334C296.085 468.872 287.349 464.661 280.362 458.234C273.375 451.806 268.451 443.452 266.212 434.226C263.973 425 264.521 415.318 267.785 406.403C271.049 397.488 276.884 389.742 284.55 384.143C292.217 378.544 301.372 375.344 310.857 374.949C320.343 374.553 329.732 376.979 337.839 381.919C345.945 386.86 352.405 394.094 356.4 402.705C361.743 414.255 362.286 427.453 357.911 439.403C353.535 451.353 344.598 461.08 333.06 466.449V466.449ZM297.707 390.251C291.248 393.247 285.823 398.092 282.118 404.172C278.412 410.252 276.593 417.294 276.89 424.408C277.187 431.522 279.586 438.388 283.785 444.138C287.984 449.888 293.794 454.264 300.48 456.712C307.166 459.16 314.428 459.571 321.347 457.892C328.267 456.213 334.533 452.52 339.353 447.279C344.174 442.039 347.332 435.487 348.429 428.452C349.525 421.417 348.511 414.215 345.515 407.756C341.488 399.102 334.193 392.399 325.231 389.118C316.268 385.836 306.37 386.243 297.707 390.251V390.251Z" fill="#3F3D56"/>
</svg>
