<svg width="726" height="494" viewBox="0 0 726 494" fill="none" xmlns="http://www.w3.org/2000/svg">
<path d="M9.653 37.9302H198.203C200.762 37.9331 203.216 38.951 205.025 40.7607C206.835 42.5704 207.853 45.024 207.856 47.5832V327.173C207.853 329.732 206.835 332.186 205.025 333.995C203.216 335.805 200.762 336.823 198.203 336.826H9.653C7.09375 336.823 4.64016 335.805 2.83049 333.995C1.02082 332.186 0.00287705 329.732 0 327.173V47.5832C0.00289292 45.0239 1.02084 42.5704 2.83051 40.7607C4.64017 38.951 7.09376 37.9331 9.653 37.9302Z" fill="#F2F2F2"/>
<path d="M11.9931 44.9506H195.863C197.181 44.952 198.445 45.4764 199.377 46.4087C200.31 47.3409 200.834 48.6049 200.835 49.9233V324.833C200.834 326.151 200.31 327.415 199.377 328.347C198.445 329.279 197.181 329.804 195.863 329.805H11.9931C10.6747 329.804 9.41073 329.279 8.47849 328.347C7.54624 327.415 7.02186 326.151 7.02039 324.833V49.9233C7.02186 48.6049 7.54624 47.3409 8.47849 46.4087C9.41073 45.4764 10.6747 44.952 11.9931 44.9506Z" fill="white"/>
<path d="M139.77 147.63C139.77 165.303 123.429 162.63 103.27 162.63C83.1121 162.63 66.7704 165.303 66.7704 147.63C66.7704 129.957 74.7529 98.6299 103.27 98.6299C132.77 98.6299 139.77 129.957 139.77 147.63Z" fill="#2F2E41"/>
<path d="M182.709 297.228C183.44 295.838 183.857 294.305 183.932 292.736C184.006 291.167 183.736 289.601 183.14 288.148C182.544 286.695 181.636 285.391 180.481 284.327C179.327 283.262 177.952 282.464 176.456 281.988L134.64 193.529L115.512 206.942L162.63 289.677C161.998 292.244 162.329 294.955 163.561 297.294C164.793 299.634 166.841 301.44 169.315 302.371C171.79 303.301 174.521 303.292 176.989 302.344C179.458 301.396 181.493 299.576 182.709 297.228Z" fill="#A0616A"/>
<path d="M146.322 201.3L143.931 197.56L142.712 195.64L133.322 180.92C131.876 177.689 129.208 175.162 125.902 173.895C122.597 172.627 118.924 172.722 115.688 174.157C112.452 175.593 109.918 178.254 108.64 181.555C107.362 184.856 107.446 188.53 108.871 191.77L115.411 215.12C115.678 216.085 116.245 216.94 117.032 217.56C117.329 217.809 117.659 218.018 118.012 218.18C118.626 218.47 119.295 218.627 119.974 218.639C120.653 218.651 121.327 218.518 121.952 218.25C121.972 218.24 122.002 218.23 122.022 218.22L133.382 213.14L133.402 213.13L142.072 209.25L144.232 208.29C144.851 208.015 145.404 207.609 145.852 207.1C146.327 206.575 146.675 205.95 146.871 205.27C147.074 204.608 147.13 203.91 147.035 203.224C146.94 202.538 146.697 201.882 146.322 201.3Z" fill="#CCCCCC"/>
<path d="M86.3914 326.72C85.9666 326.015 85.3684 325.43 84.6538 325.022C83.9391 324.614 83.1318 324.395 82.3088 324.387C81.4857 324.379 80.6743 324.582 79.9519 324.976C79.2294 325.371 78.6199 325.943 78.1815 326.64C77.992 326.926 77.8408 327.235 77.7318 327.56L77.1614 329.13H87.8416L86.3914 326.72Z" fill="#2F2E41"/>
<path d="M103.041 161.615C116.605 161.615 127.602 150.619 127.602 137.054C127.602 123.49 116.605 112.493 103.041 112.493C89.476 112.493 78.4796 123.49 78.4796 137.054C78.4796 150.619 89.476 161.615 103.041 161.615Z" fill="#A0616A"/>
<path d="M146.092 209.7C146.032 208.82 145.952 207.95 145.852 207.1C145.497 203.869 144.854 200.676 143.931 197.56C143.742 196.88 143.532 196.22 143.302 195.57C140.377 186.953 135.296 179.228 128.542 173.13C125.868 170.734 122.403 169.409 118.812 169.41H84.2117C82.0871 169.41 79.9882 169.875 78.0618 170.771C76.1355 171.667 74.4282 172.973 73.0594 174.598C71.6907 176.223 70.6935 178.128 70.1377 180.178C69.5818 182.229 69.4808 184.376 69.8416 186.47C69.8314 186.48 69.8314 186.48 69.8416 186.49C70.0858 187.888 70.5339 189.242 71.1717 190.51L72.5716 193.3L81.9515 212.06L93.6214 235.4L94.3016 236.76L137.792 248.72L137.971 248.31C138.132 247.95 138.302 247.58 138.452 247.22C138.692 246.68 138.922 246.14 139.152 245.61C143.025 236.799 145.378 227.396 146.112 217.8V217.79C146.275 215.096 146.269 212.393 146.092 209.7Z" fill="#3F3D56"/>
<path d="M139.152 245.61C139.004 245.101 138.771 244.621 138.462 244.19C137.342 242.692 136.004 241.371 134.492 240.27L134.482 240.26C129.212 236.26 118.752 231.6 98.5418 231.48H98.5116C97.5854 231.481 96.679 231.748 95.9006 232.25C95.1222 232.752 94.5045 233.467 94.1214 234.31L93.6214 235.4L90.4017 242.48C90.1271 243.086 89.6955 243.607 89.1517 243.99C84.0418 247.61 59.2918 267.91 73.8216 312.48C75.2415 316.83 76.7015 321.58 78.1815 326.64C78.4217 327.46 78.6618 328.29 78.9017 329.13H122.462L121.532 322.13C121.47 321.673 121.493 321.208 121.602 320.76L139.132 248.42L139.212 248.11C139.412 247.286 139.391 246.423 139.152 245.61Z" fill="#2F2E41"/>
<path d="M152.822 164.63H171.822C172.617 164.63 173.38 164.946 173.943 165.509C174.506 166.071 174.822 166.834 174.822 167.63V172.63C175.087 172.631 175.34 172.736 175.528 172.924C175.715 173.111 175.821 173.365 175.822 173.63V175.63C175.821 175.895 175.715 176.149 175.528 176.336C175.34 176.523 175.087 176.629 174.822 176.63V178.63C175.087 178.631 175.34 178.736 175.528 178.924C175.715 179.111 175.821 179.365 175.822 179.63V181.63C175.821 181.895 175.715 182.149 175.528 182.336C175.34 182.523 175.087 182.629 174.822 182.63V209.63C174.822 210.426 174.506 211.189 173.943 211.751C173.38 212.314 172.617 212.63 171.822 212.63H152.822C152.026 212.63 151.263 212.314 150.7 211.751C150.138 211.189 149.822 210.426 149.822 209.63V167.63C149.822 166.834 150.138 166.071 150.7 165.509C151.263 164.946 152.026 164.63 152.822 164.63Z" fill="#3F3D56"/>
<path d="M151.822 209.63V167.63C151.822 166.834 152.138 166.071 152.7 165.509C153.263 164.946 154.026 164.63 154.822 164.63H152.822C152.026 164.63 151.263 164.946 150.7 165.509C150.138 166.071 149.822 166.834 149.822 167.63V209.63C149.822 210.426 150.138 211.189 150.7 211.751C151.263 212.314 152.026 212.63 152.822 212.63H154.822C154.026 212.63 153.263 212.314 152.7 211.751C152.138 211.189 151.822 210.426 151.822 209.63Z" fill="#07575B"/>
<path d="M161.822 182.63C164.031 182.63 165.822 180.839 165.822 178.63C165.822 176.421 164.031 174.63 161.822 174.63C159.612 174.63 157.822 176.421 157.822 178.63C157.822 180.839 159.612 182.63 161.822 182.63Z" fill="white"/>
<path d="M156.746 192.643C156.422 193.091 156.133 193.564 155.882 194.057L106.643 199.972L99.4021 190.343L83.4413 199.371L94.6031 217.664C95.5048 219.142 96.8616 220.287 98.4697 220.928C100.078 221.569 101.851 221.672 103.522 221.219L157.985 206.484C159.533 207.949 161.49 208.909 163.596 209.235C165.703 209.562 167.859 209.239 169.777 208.31C171.696 207.381 173.286 205.89 174.337 204.035C175.387 202.18 175.848 200.05 175.658 197.927C175.468 195.803 174.637 193.788 173.273 192.15C171.91 190.511 170.081 189.326 168.027 188.752C165.974 188.179 163.795 188.244 161.78 188.939C159.765 189.634 158.009 190.926 156.746 192.643Z" fill="#A0616A"/>
<path d="M106.232 193.81L92.4315 175.93C90.8915 173.175 88.3659 171.104 85.3621 170.134C82.3583 169.164 79.0988 169.367 76.2383 170.702C73.3779 172.036 71.1284 174.404 69.9418 177.329C68.7553 180.254 68.7194 183.52 69.8416 186.47C69.8314 186.48 69.8314 186.48 69.8416 186.49C70.0473 187.035 70.2947 187.563 70.5814 188.07L72.5716 193.3L78.6214 209.25C78.8501 209.855 79.2072 210.404 79.6682 210.858C80.1292 211.312 80.6832 211.66 81.2918 211.88C81.5062 211.958 81.7269 212.019 81.9515 212.06C82.9993 212.274 84.0893 212.103 85.0218 211.58L104.862 200.49C105.424 200.171 105.912 199.736 106.293 199.213C106.674 198.691 106.94 198.093 107.072 197.46C107.201 196.827 107.194 196.173 107.049 195.544C106.904 194.914 106.625 194.323 106.232 193.81Z" fill="#3F3D56"/>
<path d="M74.7704 141.63H84.4848L88.7704 126.861L89.6274 141.63H94.2704L96.7704 133.014L97.2704 141.63H131.77C131.77 123.957 120.13 109.63 105.77 109.63H100.77C86.411 109.63 74.7704 123.957 74.7704 141.63Z" fill="#2F2E41"/>
<path d="M359.648 122.856H156.058C153.499 122.853 151.046 121.835 149.236 120.025C147.426 118.216 146.408 115.762 146.405 113.203V9.65294C146.408 7.09369 147.426 4.64008 149.236 2.83041C151.046 1.02075 153.499 0.00281602 156.058 -6.10352e-05H359.648C362.207 0.00281338 364.661 1.02075 366.47 2.83041C368.28 4.64008 369.298 7.09369 369.301 9.65294V113.203C369.298 115.762 368.28 118.216 366.47 120.025C364.661 121.835 362.207 122.853 359.648 122.856Z" fill="#CCCCCC"/>
<path d="M357.308 115.835H158.398C157.08 115.834 155.816 115.31 154.884 114.377C153.952 113.445 153.427 112.181 153.426 110.863V11.993C153.427 10.6746 153.952 9.41066 154.884 8.47841C155.816 7.54616 157.08 7.02178 158.398 7.02031H357.308C358.626 7.02178 359.89 7.54616 360.822 8.47841C361.755 9.41066 362.279 10.6746 362.28 11.993V110.863C362.279 112.181 361.755 113.445 360.822 114.377C359.89 115.31 358.626 115.834 357.308 115.835Z" fill="white"/>
<path d="M168.265 141.89C167.771 141.888 167.282 141.79 166.827 141.599C166.147 141.326 165.565 140.853 165.158 140.244C164.751 139.635 164.538 138.917 164.545 138.184V119.153L193.225 118.428L170.855 140.798C170.517 141.142 170.114 141.416 169.669 141.603C169.225 141.791 168.747 141.888 168.265 141.89Z" fill="#CCCCCC"/>
<path d="M333.089 56.9941H232.465C231.849 56.995 231.24 56.8746 230.672 56.6398C230.103 56.405 229.586 56.0604 229.151 55.6257C228.715 55.191 228.37 54.6748 228.134 54.1065C227.899 53.5383 227.778 52.9291 227.778 52.3139C227.778 51.6987 227.899 51.0896 228.134 50.5213C228.37 49.953 228.715 49.4368 229.151 49.0021C229.586 48.5674 230.103 48.2228 230.672 47.988C231.24 47.7532 231.849 47.6328 232.465 47.6337H333.089C334.331 47.6337 335.521 48.1268 336.399 49.0045C337.276 49.8822 337.77 51.0726 337.77 52.3139C337.77 53.5552 337.276 54.7456 336.399 55.6233C335.521 56.501 334.331 56.9941 333.089 56.9941Z" fill="#CCCCCC"/>
<path d="M190.81 56.9941C198.888 56.9941 205.436 50.446 205.436 42.3684C205.436 34.2909 198.888 27.7428 190.81 27.7428C182.733 27.7428 176.185 34.2909 176.185 42.3684C176.185 50.446 182.733 56.9941 190.81 56.9941Z" fill="#6F34CC"/>
<path d="M302.08 95.1129C304.665 95.1129 306.76 93.0175 306.76 90.4327C306.76 87.8479 304.665 85.7525 302.08 85.7525C299.495 85.7525 297.4 87.8479 297.4 90.4327C297.4 93.0175 299.495 95.1129 302.08 95.1129Z" fill="#E6E6E6"/>
<path d="M318.461 95.1129C321.045 95.1129 323.141 93.0175 323.141 90.4327C323.141 87.8479 321.045 85.7525 318.461 85.7525C315.876 85.7525 313.78 87.8479 313.78 90.4327C313.78 93.0175 315.876 95.1129 318.461 95.1129Z" fill="#E6E6E6"/>
<path d="M334.841 95.1129C337.426 95.1129 339.521 93.0175 339.521 90.4327C339.521 87.8479 337.426 85.7525 334.841 85.7525C332.256 85.7525 330.161 87.8479 330.161 90.4327C330.161 93.0175 332.256 95.1129 334.841 95.1129Z" fill="#E6E6E6"/>
<path d="M527.653 194.93H716.203C718.762 194.933 721.216 195.951 723.025 197.761C724.835 199.57 725.853 202.024 725.856 204.583V484.173C725.853 486.732 724.835 489.186 723.025 490.995C721.216 492.805 718.762 493.823 716.203 493.826H527.653C525.094 493.823 522.64 492.805 520.831 490.995C519.021 489.186 518.003 486.732 518 484.173V204.583C518.003 202.024 519.021 199.57 520.831 197.761C522.64 195.951 525.094 194.933 527.653 194.93Z" fill="#F2F2F2"/>
<path d="M529.993 201.951H713.863C715.181 201.952 716.445 202.476 717.377 203.409C718.31 204.341 718.834 205.605 718.835 206.923V481.833C718.834 483.151 718.31 484.415 717.377 485.347C716.445 486.279 715.181 486.804 713.863 486.805H529.993C528.675 486.804 527.411 486.279 526.479 485.347C525.546 484.415 525.022 483.151 525.02 481.833V206.923C525.022 205.605 525.546 204.341 526.479 203.409C527.411 202.476 528.675 201.952 529.993 201.951Z" fill="white"/>
<path d="M535.573 336.486H331.983C329.424 336.483 326.97 335.465 325.161 333.655C323.351 331.845 322.333 329.392 322.33 326.833V223.283C322.333 220.724 323.351 218.27 325.161 216.46C326.97 214.651 329.424 213.633 331.983 213.63H535.573C538.132 213.633 540.586 214.651 542.395 216.46C544.205 218.27 545.223 220.724 545.226 223.283V326.833C545.223 329.392 544.205 331.846 542.395 333.655C540.586 335.465 538.132 336.483 535.573 336.486Z" fill="#CCCCCC"/>
<path d="M533.233 329.465H334.323C333.005 329.464 331.741 328.939 330.809 328.007C329.876 327.075 329.352 325.811 329.351 324.493V225.623C329.352 224.305 329.876 223.041 330.809 222.108C331.741 221.176 333.005 220.652 334.323 220.65H533.233C534.551 220.652 535.815 221.176 536.747 222.108C537.679 223.041 538.204 224.305 538.205 225.623V324.493C538.204 325.811 537.679 327.075 536.747 328.007C535.815 328.939 534.551 329.464 533.233 329.465Z" fill="white"/>
<path d="M521.713 354.428L499.343 332.057L528.023 332.782V351.814C528.03 352.547 527.817 353.265 527.41 353.874C527.003 354.483 526.421 354.956 525.741 355.229C525.286 355.419 524.797 355.518 524.303 355.52C523.821 355.518 523.343 355.421 522.899 355.233C522.454 355.046 522.051 354.772 521.713 354.428Z" fill="#CCCCCC"/>
<path d="M509.014 270.624H408.389C407.774 270.625 407.165 270.505 406.596 270.27C406.028 270.035 405.511 269.69 405.076 269.256C404.64 268.821 404.295 268.305 404.059 267.736C403.824 267.168 403.702 266.559 403.702 265.944C403.702 265.329 403.824 264.719 404.059 264.151C404.295 263.583 404.64 263.067 405.076 262.632C405.511 262.197 406.028 261.853 406.596 261.618C407.165 261.383 407.774 261.263 408.389 261.264H509.014C509.629 261.263 510.239 261.383 510.807 261.618C511.376 261.853 511.893 262.197 512.328 262.632C512.763 263.067 513.109 263.583 513.344 264.151C513.58 264.719 513.701 265.329 513.701 265.944C513.701 266.559 513.58 267.168 513.344 267.736C513.109 268.305 512.763 268.821 512.328 269.256C511.893 269.69 511.376 270.035 510.807 270.27C510.239 270.505 509.629 270.625 509.014 270.624Z" fill="#CCCCCC"/>
<path d="M476.253 250.733H408.389C407.775 250.733 407.166 250.612 406.598 250.377C406.031 250.142 405.515 249.797 405.08 249.362C404.645 248.928 404.301 248.412 404.066 247.844C403.83 247.276 403.709 246.667 403.709 246.053C403.709 245.438 403.83 244.83 404.066 244.262C404.301 243.694 404.645 243.178 405.08 242.743C405.515 242.309 406.031 241.964 406.598 241.729C407.166 241.494 407.775 241.373 408.389 241.373H476.253C477.494 241.373 478.684 241.866 479.562 242.743C480.44 243.621 480.933 244.812 480.933 246.053C480.933 247.294 480.44 248.485 479.562 249.362C478.684 250.24 477.494 250.733 476.253 250.733Z" fill="#CCCCCC"/>
<path d="M366.735 270.624C374.813 270.624 381.361 264.076 381.361 255.998C381.361 247.921 374.813 241.373 366.735 241.373C358.658 241.373 352.11 247.921 352.11 255.998C352.11 264.076 358.658 270.624 366.735 270.624Z" fill="#6F34CC"/>
<path d="M478.005 308.743C480.589 308.743 482.685 306.647 482.685 304.063C482.685 301.478 480.589 299.382 478.005 299.382C475.42 299.382 473.324 301.478 473.324 304.063C473.324 306.647 475.42 308.743 478.005 308.743Z" fill="#E6E6E6"/>
<path d="M494.385 308.743C496.97 308.743 499.066 306.647 499.066 304.063C499.066 301.478 496.97 299.382 494.385 299.382C491.801 299.382 489.705 301.478 489.705 304.063C489.705 306.647 491.801 308.743 494.385 308.743Z" fill="#E6E6E6"/>
<path d="M510.766 308.743C513.351 308.743 515.446 306.647 515.446 304.063C515.446 301.478 513.351 299.382 510.766 299.382C508.181 299.382 506.086 301.478 506.086 304.063C506.086 306.647 508.181 308.743 510.766 308.743Z" fill="#E6E6E6"/>
<path d="M537.809 399.16C538.619 397.933 539.689 396.899 540.942 396.131C542.195 395.362 543.602 394.878 545.062 394.711C546.523 394.545 548.002 394.701 549.396 395.168C550.79 395.636 552.064 396.403 553.13 397.416L584.884 381.026L582.91 399.49L553.058 412.224C551.237 413.901 548.865 414.851 546.39 414.896C543.916 414.94 541.511 414.075 539.631 412.465C537.751 410.855 536.528 408.611 536.192 406.159C535.856 403.706 536.432 401.216 537.809 399.16Z" fill="#FFB8B8"/>
<path d="M636.681 317.07C634.218 315.142 631.198 314.063 628.071 313.993C624.944 313.922 621.879 314.865 619.331 316.68C618.182 317.505 617.156 318.488 616.282 319.6L588.402 371.31L562.672 390.75C561.819 391.392 561.223 392.318 560.992 393.36C560.817 394.124 560.848 394.921 561.081 395.67L563.612 403.83C563.882 404.707 564.412 405.481 565.132 406.05C565.412 406.26 565.714 406.441 566.032 406.59C566.07 406.611 566.11 406.628 566.152 406.64C566.713 406.881 567.317 407.004 567.928 407.002C568.538 407.001 569.142 406.874 569.701 406.63L599.862 393.55L600.192 393.4C610.357 388.901 618.567 380.898 623.322 370.85L639.181 337.38C641.532 334.351 642.589 330.515 642.12 326.709C641.652 322.904 639.696 319.438 636.681 317.07Z" fill="#3F3D56"/>
<path d="M639.877 298.015C653.442 298.015 664.438 287.018 664.438 273.454C664.438 259.889 653.442 248.893 639.877 248.893C626.313 248.893 615.316 259.889 615.316 273.454C615.316 287.018 626.313 298.015 639.877 298.015Z" fill="#FFB8B8"/>
<path d="M656.502 437.7L656.252 435.79L655.092 427.08L653.822 417.57L649.312 418.34L647.572 418.63L645.812 418.93L645.232 419.03L600.492 426.63L594.922 423.28L594.802 423.21L594.852 423.72L595.902 434.61L600.911 486.63H663.032L656.502 437.7Z" fill="#2F2E41"/>
<path d="M673.701 337.77C672.905 328.861 668.695 320.606 661.951 314.73C655.462 308.982 646.955 306.047 638.302 306.57C630.052 307.12 623.712 310.51 619.331 316.68C617.078 319.982 615.414 323.65 614.411 327.52C609.431 345.44 604.181 371.69 600.192 393.4C597.951 405.52 596.112 416.23 594.922 423.28C594.902 423.43 594.882 423.57 594.852 423.72C594.391 426.47 594.042 428.62 593.812 430.05C593.666 430.932 593.787 431.837 594.16 432.65C594.532 433.462 595.139 434.145 595.902 434.61C595.911 434.62 595.932 434.63 595.942 434.64C600.989 437.659 606.75 439.278 612.632 439.33C619.752 439.33 628.292 436.85 637.282 428.84C637.892 428.285 638.678 427.963 639.502 427.928C640.326 427.893 641.137 428.149 641.792 428.65L642.772 429.41L652.452 436.94C653.207 437.531 654.133 437.864 655.092 437.89C655.569 437.911 656.047 437.847 656.502 437.7C656.543 437.695 656.583 437.685 656.621 437.67C657.319 437.443 657.951 437.048 658.46 436.519C658.969 435.991 659.341 435.346 659.542 434.64C660.081 432.76 660.682 430.59 661.342 428.17C661.612 427.16 661.891 426.1 662.182 425C663.452 420.14 664.862 414.5 666.242 408.36C671.062 386.9 675.641 359.33 673.701 337.77Z" fill="#3F3D56"/>
<path d="M633.255 440.266C633.135 438.8 633.339 437.327 633.85 435.949C634.362 434.571 635.17 433.321 636.217 432.289C637.263 431.257 638.524 430.467 639.909 429.974C641.294 429.482 642.77 429.299 644.234 429.439L659.105 396.946L668.947 412.693L653.316 441.135C652.918 443.578 651.638 445.79 649.718 447.352C647.798 448.914 645.372 449.718 642.899 449.611C640.426 449.504 638.079 448.493 636.301 446.771C634.524 445.048 633.44 442.734 633.255 440.266Z" fill="#FFB8B8"/>
<path d="M683.072 365.22L674.891 329.09C674.871 325.526 673.542 322.094 671.156 319.446C668.77 316.798 665.494 315.12 661.951 314.73C661.442 314.68 660.922 314.65 660.391 314.65C658.482 314.655 656.591 315.036 654.829 315.773C653.067 316.509 651.467 317.585 650.121 318.94C648.775 320.296 647.71 321.903 646.986 323.67C646.262 325.437 645.893 327.33 645.902 329.24L655.882 387.13L655.852 387.25L647.632 418.31C647.601 418.414 647.581 418.522 647.572 418.63C647.384 419.56 647.507 420.526 647.922 421.38C648.254 422.096 648.772 422.711 649.422 423.16L655.092 427.08L656.442 428.02C657.193 428.543 658.087 428.822 659.002 428.82C659.355 428.82 659.707 428.779 660.052 428.7C660.092 428.69 660.121 428.68 660.161 428.67C660.577 428.562 660.975 428.393 661.342 428.17C662.023 427.757 662.582 427.17 662.962 426.47L678.621 397.56C683.97 387.674 685.552 376.183 683.072 365.22Z" fill="#3F3D56"/>
<path d="M647.893 353.651L656.893 391.651L643.893 423.651L652.893 392.651L647.893 353.651Z" fill="black"/>
<path d="M659.755 288.215C661.813 287.481 663.706 286.347 665.323 284.877C666.038 284.239 666.806 283.646 667.519 283.009C673.817 277.376 675.709 267.689 672.9 259.72C670.09 251.752 663.101 245.627 655.115 242.866C647.129 240.106 638.278 240.482 630.169 242.858C621.435 245.417 612.688 251.18 610.613 260.042C610.061 262.401 610.04 265.018 611.646 267.008C612.129 267.609 612.762 268.073 613.48 268.353C616.31 269.438 617.888 267.223 620 266.282C622.904 264.989 626.478 266.385 628.499 268.838C630.52 271.292 631.268 274.55 631.579 277.713C631.641 279.664 631.947 281.599 632.489 283.473C632.771 284.409 633.288 285.258 633.99 285.938C634.692 286.619 635.556 287.109 636.5 287.362C638.779 287.783 640.97 286.214 642.403 284.394C643.836 282.573 644.853 280.411 646.547 278.83C648.24 277.249 651.003 276.415 652.86 277.801C653.482 278.326 654.006 278.956 654.41 279.662C657.256 284.034 656.909 283.844 659.755 288.215Z" fill="#2F2E41"/>
<path d="M542.133 378.132L524.806 385.928C524.081 386.254 523.515 386.856 523.232 387.6C522.95 388.343 522.975 389.169 523.301 389.895L525.353 394.454C525.112 394.564 524.923 394.764 524.829 395.012C524.735 395.26 524.743 395.535 524.851 395.777L525.672 397.6C525.781 397.842 525.982 398.03 526.229 398.124C526.477 398.218 526.752 398.21 526.994 398.102L527.815 399.926C527.573 400.036 527.385 400.236 527.291 400.484C527.197 400.731 527.205 401.006 527.313 401.248L528.134 403.072C528.243 403.313 528.443 403.502 528.691 403.596C528.939 403.69 529.214 403.682 529.456 403.574L540.534 428.197C540.86 428.922 541.461 429.488 542.205 429.771C542.949 430.053 543.775 430.028 544.5 429.702L561.828 421.906C562.553 421.58 563.119 420.978 563.402 420.234C563.684 419.491 563.659 418.665 563.333 417.939L546.1 379.637C545.774 378.912 545.172 378.345 544.429 378.063C543.685 377.781 542.859 377.806 542.133 378.132Z" fill="#3F3D56"/>
<path d="M560.121 415.68L545.661 383.54C545.349 382.844 544.774 382.301 544.062 382.029C543.349 381.757 542.558 381.779 541.862 382.09L527.951 388.35C527.258 388.665 526.718 389.241 526.448 389.953C526.178 390.665 526.201 391.455 526.512 392.15L540.971 424.3C541.288 424.994 541.866 425.535 542.58 425.805C543.294 426.075 544.085 426.051 544.782 425.74L558.682 419.48C559.375 419.166 559.916 418.589 560.186 417.877C560.456 417.165 560.433 416.375 560.121 415.68Z" fill="#6F34CC"/>
</svg>
