<svg width="758" height="469" viewBox="0 0 758 469" fill="none" xmlns="http://www.w3.org/2000/svg">
<path d="M574.02 59.7H92.4202C79.574 59.7 69.1602 70.1138 69.1602 82.9599V364.43C69.1602 377.276 79.574 387.69 92.4202 387.69H574.02C586.866 387.69 597.28 377.276 597.28 364.43V82.9599C597.28 70.1138 586.866 59.7 574.02 59.7Z" fill="#535461"/>
<path d="M585.05 107.51H80.2803V375.46H585.05V107.51Z" fill="white"/>
<path d="M332.67 88.61C335.127 88.61 337.12 86.6176 337.12 84.16C337.12 81.7023 335.127 79.71 332.67 79.71C330.212 79.71 328.22 81.7023 328.22 84.16C328.22 86.6176 330.212 88.61 332.67 88.61Z" fill="white"/>
<path d="M410.6 376.01L393.26 393.8H271L255.33 376.01H6.34027C4.86567 376.01 3.45147 376.596 2.40877 377.638C1.36607 378.681 0.780273 380.095 0.780273 381.57V386.05C0.780273 394.298 4.05687 402.209 9.88925 408.041C15.7216 413.873 23.632 417.15 31.8803 417.15H632.34C636.424 417.15 640.468 416.346 644.242 414.783C648.015 413.22 651.443 410.929 654.331 408.041C657.219 405.153 659.51 401.725 661.073 397.951C662.636 394.178 663.44 390.134 663.44 386.05V381.57C663.44 380.095 662.854 378.681 661.812 377.638C660.769 376.596 659.355 376.01 657.88 376.01H410.6Z" fill="#535461"/>
<path fill-rule="evenodd" clip-rule="evenodd" d="M143.77 124.19H145.77V351.11H521.67V353.11H143.77V124.19Z" fill="#535461"/>
<path opacity="0.5" d="M217.03 283.18H178.12V343.22H217.03V283.18Z" fill="#6F34CC"/>
<path opacity="0.7" d="M283.74 229.81H244.83V343.22H283.74V229.81Z" fill="#6F34CC"/>
<path opacity="0.5" d="M350.45 262.05H311.54V343.21H350.45V262.05Z" fill="#6F34CC"/>
<path opacity="0.8" d="M417.16 212.02H378.25V343.22H417.16V212.02Z" fill="#6F34CC"/>
<path d="M483.87 165.32H444.96V343.21H483.87V165.32Z" fill="#6F34CC"/>
<path fill-rule="evenodd" clip-rule="evenodd" d="M397.733 173.95L464.245 146.233L463.476 144.387L396.567 172.27L331.478 241.764L264.827 184.005L196.351 245.747L197.69 247.233L264.853 186.675L331.622 244.536L397.733 173.95Z" fill="#535461"/>
<path d="M197.02 254.27C201.317 254.27 204.8 250.787 204.8 246.49C204.8 242.193 201.317 238.71 197.02 238.71C192.723 238.71 189.24 242.193 189.24 246.49C189.24 250.787 192.723 254.27 197.02 254.27Z" fill="#07575B"/>
<path d="M330.44 249.82C334.737 249.82 338.22 246.337 338.22 242.04C338.22 237.743 334.737 234.26 330.44 234.26C326.143 234.26 322.66 237.743 322.66 242.04C322.66 246.337 326.143 249.82 330.44 249.82Z" fill="#07575B"/>
<path d="M398.26 180.89C402.557 180.89 406.04 177.407 406.04 173.11C406.04 168.813 402.557 165.33 398.26 165.33C393.964 165.33 390.48 168.813 390.48 173.11C390.48 177.407 393.964 180.89 398.26 180.89Z" fill="#07575B"/>
<path d="M264.84 192C269.136 192 272.62 188.517 272.62 184.22C272.62 179.923 269.136 176.44 264.84 176.44C260.543 176.44 257.06 179.923 257.06 184.22C257.06 188.517 260.543 192 264.84 192Z" fill="#07575B"/>
<path d="M463.86 153.09C468.157 153.09 471.64 149.607 471.64 145.31C471.64 141.013 468.157 137.53 463.86 137.53C459.563 137.53 456.08 141.013 456.08 145.31C456.08 149.607 459.563 153.09 463.86 153.09Z" fill="#07575B"/>
<path d="M753.31 385.75C749.21 384.4 743.13 382.84 738.31 383.39C733.72 381.72 722.93 377.39 715.56 370.87C715.773 364.459 715.609 358.042 715.07 351.65C711.3 308.78 719.78 280.52 719.78 280.52C719.78 280.52 726.44 258.96 725.71 241.07C726.14 241.88 726.38 242.36 726.38 242.36C726.96 226.93 732.22 210.96 736.16 201.01C736.31 200.967 736.458 200.914 736.6 200.85L741 190.41C741.351 189.801 741.629 189.153 741.83 188.48L742.54 186.83L742.33 186.74C742.4 186.47 742.47 186.18 742.54 185.89C745.35 174 747.54 145.8 747.54 145.8C755.08 116.12 737.18 97.8 737.18 97.8L706.8 71.66C706.951 72.0003 707.053 72.3608 707.1 72.7301L706.85 72.5101C706.42 71.2801 705.95 69.8101 705.49 68.1301C706.562 67.3606 707.565 66.5008 708.49 65.5601C711.944 62.298 714.32 58.059 715.3 53.41C715.889 49.7746 716.04 46.0815 715.75 42.41L715.25 29.8C715.228 27.3322 714.976 24.8717 714.5 22.4501C712.21 12.4501 701.96 5.45005 691.67 4.99005C688.396 4.97099 685.124 5.14462 681.87 5.51006C679.209 5.72864 676.538 5.78541 673.87 5.68005C673.566 5.69615 673.265 5.61563 673.01 5.45006C672.779 5.21907 672.646 4.90708 672.64 4.58005C672.588 3.99478 672.655 3.40495 672.837 2.8463C673.019 2.28764 673.313 1.77179 673.7 1.33005C674.103 0.977014 674.572 0.70838 675.08 0.540054L674.35 0.710052C674.71 0.426245 675.116 0.206385 675.55 0.0600586C672.883 0.529037 670.318 1.45965 667.97 2.81006C667.323 3.23502 666.729 3.73517 666.2 4.30005C664.802 5.52699 663.893 7.21704 663.64 9.06006C662.387 8.00224 661.453 6.61754 660.94 5.06006C660.781 4.42319 660.781 3.75693 660.94 3.12006C660.76 3.34006 660.587 3.56672 660.42 3.80005C660.42 3.73005 660.42 3.66006 660.42 3.59006C658.488 5.96549 657.12 8.74884 656.42 11.7301C656.151 11.4072 655.949 11.0341 655.825 10.6324C655.702 10.2306 655.659 9.80836 655.7 9.39006C655.55 9.86006 655.41 10.33 655.28 10.8C655.235 10.4884 655.235 10.1717 655.28 9.86005C654.103 13.4652 653.571 17.25 653.71 21.0401C653.71 24.8201 655.39 30.7101 659.44 32.0401C659.65 32.1101 659.86 32.1601 660.08 32.2101C657.803 35.7482 656.439 39.7963 656.11 43.9914C655.782 48.1864 656.5 52.3974 658.2 56.2467C659.899 60.0961 662.528 63.4634 665.849 66.047C669.17 68.6306 673.081 70.3497 677.23 71.05C677.297 71.51 677.36 71.9934 677.42 72.5001H677.58C677.69 73.5001 677.78 74.6 677.84 75.72C676.818 76.7215 675.699 77.6192 674.5 78.4001C671.1 80.4099 667.308 81.6649 663.38 82.08C658.69 82.448 654.132 83.8117 650.01 86.08C645.16 88.79 639.81 92.74 638.13 97.54C635.33 105.54 619.91 117.99 609.57 119.54L605.89 119.33L605.62 119.25V119.32L604.72 119.27H604.67H604.43V119.32L603.5 119.27C603.5 119.27 603.41 119.7 603.28 120.46C598.08 118.67 587.03 113.71 572.65 100.66C556.65 86.1301 535 88.9901 526.65 90.8201C526.366 90.8827 526.108 91.0305 525.91 91.2438C525.712 91.457 525.584 91.7255 525.543 92.0135C525.502 92.3014 525.549 92.5952 525.679 92.8554C525.809 93.1157 526.015 93.3301 526.27 93.4701C529.64 95.3201 534.86 98.0101 537.27 98.3101C537.27 98.3101 532.27 103.54 537.59 106.31C538.229 106.619 538.939 106.745 539.645 106.677C540.351 106.608 541.024 106.346 541.59 105.92C544.17 104.03 551.34 108.31 561.73 110.54C561.73 110.54 591.05 140.88 605.61 145.54C605.946 146.203 606.316 146.847 606.72 147.47L607.62 147.4V147.47H608L608.11 148.47C608.11 148.47 630.75 147.28 638.11 139.06C638.631 138.593 639.11 138.081 639.54 137.53L631.67 236.53H631.74L631.67 237.47H637.46C637.956 249.646 637.431 261.842 635.89 273.93V338.47C635.89 338.47 635.59 344.15 647.39 352.47C659.762 361.084 671.685 370.326 683.11 380.16L684.54 381.4C682.37 401.15 677.83 437.96 674.04 439.33L676.38 439.74C672.38 444.81 661.02 458.74 657.56 459.11C653.32 459.58 650.49 466.18 657.56 467.59C671.677 470.034 686.192 468.603 699.56 463.45C700.893 462.924 702.012 461.966 702.737 460.73C703.462 459.494 703.752 458.05 703.56 456.63L702.19 446.23C702.45 446.374 702.659 446.594 702.79 446.86C703.73 449.69 702.79 443.09 702.79 443.09C706.664 430.639 709.708 417.944 711.9 405.09L725.9 417.19C725.9 417.19 726.18 416.84 726.67 416.19C730.1 423.97 736.22 439.89 734.85 451.55C732.97 467.55 750.85 453.43 748.98 444.01C747.46 436.39 754.26 404.09 756.91 392.01C757.196 390.706 756.985 389.342 756.32 388.185C755.654 387.027 754.581 386.159 753.31 385.75V385.75Z" fill="url(#paint0_linear_178_327)"/>
<path d="M607 124.42C607 124.42 593.66 122.12 573.88 104.18C558.23 89.99 537.12 92.78 528.98 94.57C528.703 94.6299 528.45 94.7733 528.257 94.981C528.063 95.1886 527.938 95.4504 527.898 95.7313C527.858 96.0122 527.904 96.2987 528.032 96.5523C528.159 96.8059 528.361 97.0145 528.61 97.15C531.9 98.95 537 101.58 539.39 101.88C539.39 101.88 534.46 106.98 539.7 109.71C540.328 110.018 541.028 110.146 541.724 110.079C542.42 110.012 543.083 109.752 543.64 109.33C546.16 107.49 553.16 111.67 563.31 113.84C563.31 113.84 602.87 154.78 612.07 147.84L607 124.42Z" fill="#FEC3BE"/>
<path d="M675.11 68.76C675.11 68.76 678.79 84.4 675.11 95.44L691.67 97.74L706.39 90.38V80.72C706.39 80.72 699.49 66 701.33 48.98L675.11 68.76Z" fill="#FEC3BE"/>
<path d="M722 407.76C722 407.76 734 431.22 732.12 446.86C730.24 462.5 747.76 448.7 745.92 439.5C744.43 432.06 751.07 400.5 753.66 388.76C753.941 387.491 753.74 386.164 753.097 385.035C752.454 383.906 751.414 383.056 750.18 382.65C744.65 380.83 735.39 378.6 730.74 382.01C723.87 387.06 722 407.76 722 407.76Z" fill="#8B416F"/>
<path d="M676.49 433.52C676.49 433.52 660.85 453.76 656.71 454.22C652.57 454.68 649.81 461.12 656.71 462.5C670.487 464.898 684.656 463.515 697.71 458.5C699.016 457.99 700.113 457.057 700.826 455.849C701.539 454.642 701.825 453.23 701.64 451.84L699 432.14L676.49 433.52Z" fill="#8B416F"/>
<path d="M650.729 218.71L635.729 220.71C637.788 238.23 637.728 255.934 635.549 273.44V336.44C635.549 336.44 635.26 341.99 646.78 350.06C658.86 358.458 670.502 367.47 681.659 377.06L723.4 413.22C723.4 413.22 739.959 392.98 737.659 381.02C737.659 381.02 710.06 372.28 706.38 358.02C704.27 349.86 693.57 343.02 684.81 338.72C679.303 336.046 674.877 331.568 672.266 326.031C669.656 320.493 669.018 314.23 670.46 308.28C670.971 306.212 671.762 304.224 672.81 302.37C680.17 289.49 690.75 260.51 690.75 260.51L670.51 221.93L650.729 218.71Z" fill="#4D4981"/>
<path opacity="0.05" d="M650.729 218.71L635.729 220.71C637.788 238.23 637.728 255.934 635.549 273.44V336.44C635.549 336.44 635.26 341.99 646.78 350.06C658.86 358.458 670.502 367.47 681.659 377.06L723.4 413.22C723.4 413.22 739.959 392.98 737.659 381.02C737.659 381.02 710.06 372.28 706.38 358.02C704.27 349.86 693.57 343.02 684.81 338.72C679.303 336.046 674.877 331.568 672.266 326.031C669.656 320.493 669.018 314.23 670.46 308.28C670.971 306.212 671.762 304.224 672.81 302.37C680.17 289.49 690.75 260.51 690.75 260.51L670.51 221.93L650.729 218.71Z" fill="black"/>
<path d="M672.81 434.93C672.81 434.93 699.95 439.53 700.87 442.29C701.79 445.05 700.87 438.61 700.87 438.61C700.87 438.61 716.51 391.23 712.87 349.38C709.23 307.53 717.47 279.92 717.47 279.92C717.47 279.92 727.13 248.64 721.61 230.7C716.09 212.76 658.13 220.58 658.13 220.58C658.13 220.58 678.37 267.96 677.91 290.5C677.91 290.5 680.21 358.58 684.35 366.4C684.31 366.36 677.87 433.06 672.81 434.93Z" fill="#4D4981"/>
<path d="M676 80.72C676 80.72 678.76 97.72 706.36 90.38L688 230.21C688 230.21 634.64 232.05 635.1 225.61L646.1 140.98L676 80.72Z" fill="white"/>
<path opacity="0.1" d="M676.72 79.8C673.126 83.3384 668.444 85.5614 663.43 86.11C658.851 86.461 654.399 87.7837 650.37 89.9901C645.64 92.6401 640.37 96.4901 638.77 101.18C635.55 110.38 615.31 125.56 606.11 122.34L609.33 149.94C609.33 149.94 635.55 148.56 640.15 138.44L632.34 236.93H639.24C639.24 236.93 642.92 210.25 645.68 204.73C648.44 199.21 653.96 168.85 654.42 161.49C654.88 154.13 661.78 111.81 667.76 104.49L676.76 82.64L676.72 79.8Z" fill="black"/>
<path opacity="0.1" d="M676.72 81.1801C672.609 84.3957 667.694 86.4194 662.51 87.0301C657.933 87.3886 653.484 88.7181 649.46 90.9301C644.73 93.5801 639.46 97.4301 637.86 102.12C634.64 111.32 614.4 126.5 605.2 123.28L608.42 150.88C608.42 150.88 634.64 149.5 639.24 139.38L631.42 237.81H638.32C638.32 237.81 642 211.13 644.76 205.61C647.52 200.09 653.04 169.73 653.5 162.37C653.96 155.01 660.86 112.69 666.84 105.37L676.72 83.9301V81.1801Z" fill="black"/>
<path d="M676.72 80.26C672.609 83.4757 667.694 85.4994 662.51 86.11C657.931 86.461 653.479 87.7837 649.45 89.99C644.72 92.64 639.45 96.49 637.85 101.18C634.63 110.38 614.39 125.56 605.19 122.34L608.41 149.94C608.41 149.94 634.63 148.56 639.23 138.44L631.42 236.93H638.32C638.32 236.93 642 210.25 644.76 204.73C647.52 199.21 653.04 168.85 653.5 161.49C653.96 154.13 660.86 111.81 666.84 104.49L676.73 83.1L676.72 80.26Z" fill="#FD6F8D"/>
<path opacity="0.1" d="M700.18 62.55C699.58 58.19 700.78 55.47 701.33 50.36L675.11 70.14C675.11 70.14 675.74 72.81 676.22 76.72C677.543 76.9337 678.881 77.0407 680.22 77.04C689.32 77.04 695.87 69.93 700.18 62.55Z" fill="black"/>
<path d="M680.17 75.67C693.889 75.67 705.01 64.5487 705.01 50.83C705.01 37.1112 693.889 25.99 680.17 25.99C666.451 25.99 655.33 37.1112 655.33 50.83C655.33 64.5487 666.451 75.67 680.17 75.67Z" fill="#FEC3BE"/>
<path opacity="0.1" d="M653.06 26.48C652.9 22.2909 653.58 18.1123 655.06 14.19C654.649 14.8071 654.475 15.5521 654.571 16.2874C654.666 17.0226 655.025 17.6984 655.58 18.19C656.381 13.9151 658.575 10.0258 661.82 7.12996C660.05 7.41996 659.14 9.60996 659.58 11.35C660.178 13.0495 661.241 14.5466 662.65 15.67C662.5 13.04 664.24 10.58 666.44 9.13997C668.732 7.82332 671.236 6.9164 673.84 6.45996C672.947 6.77687 672.184 7.38038 671.671 8.17633C671.157 8.97228 670.921 9.91589 671 10.86C671.008 11.1807 671.14 11.4857 671.37 11.71C671.62 11.8698 671.914 11.9468 672.21 11.93C674.801 12.0298 677.396 11.9731 679.98 11.76C683.157 11.4024 686.353 11.2321 689.55 11.25C699.55 11.67 709.6 18.5 711.84 28.25C712.304 30.6157 712.548 33.0192 712.57 35.43L713.06 47.74C713.344 51.3313 713.197 54.9438 712.62 58.5C711.927 61.7829 710.519 64.8725 708.494 67.5483C706.47 70.2241 703.88 72.4203 700.91 73.98C697.3 68.75 696.98 62.03 695.73 55.8C695.533 54.3623 694.998 52.9916 694.17 51.8C693.742 51.2107 693.142 50.7691 692.452 50.5362C691.762 50.3033 691.017 50.2906 690.32 50.5C688.97 51.04 688.39 53.1 689.51 54.02C688.51 55.2 686.64 54.32 685.51 53.27C682.354 50.2763 680.182 46.3952 679.28 42.14C678.83 40 678.38 37.36 676.28 36.63C675.557 36.4314 674.802 36.3804 674.06 36.48C669.68 36.78 662.83 38.59 658.59 37.2C654.7 35.93 653.06 30.17 653.06 26.48Z" fill="black"/>
<path d="M653.52 26.02C653.36 21.831 654.04 17.6524 655.52 13.73C655.109 14.3471 654.935 15.0921 655.031 15.8274C655.126 16.5626 655.485 17.2385 656.04 17.73C656.84 13.4551 659.035 9.56587 662.28 6.67C660.51 6.96 659.6 9.15 660.04 10.89C660.637 12.5895 661.701 14.0866 663.11 15.21C662.96 12.58 664.7 10.12 666.9 8.67999C669.192 7.36335 671.696 6.45644 674.3 6C673.407 6.31691 672.644 6.92042 672.131 7.71637C671.617 8.51232 671.381 9.45593 671.46 10.4C671.468 10.7207 671.6 11.0258 671.83 11.25C672.08 11.4099 672.374 11.4868 672.67 11.47C675.261 11.5698 677.856 11.5131 680.44 11.3C683.617 10.9424 686.813 10.7721 690.01 10.79C700.01 11.21 710.06 18.04 712.3 27.79C712.764 30.1557 713.008 32.5593 713.03 34.97L713.52 47.28C713.804 50.8713 713.657 54.4839 713.08 58.04C712.387 61.3229 710.979 64.4125 708.954 67.0883C706.93 69.7642 704.34 71.9603 701.37 73.52C697.76 68.29 697.44 61.57 696.19 55.34C695.993 53.9023 695.458 52.5316 694.63 51.34C694.202 50.7508 693.602 50.3091 692.912 50.0762C692.222 49.8433 691.477 49.8306 690.78 50.04C689.43 50.58 688.85 52.64 689.97 53.56C688.97 54.74 687.1 53.86 685.97 52.81C682.814 49.8164 680.642 45.9352 679.74 41.68C679.29 39.54 678.84 36.9 676.74 36.17C676.017 35.9715 675.262 35.9204 674.52 36.02C670.14 36.32 663.29 38.13 659.05 36.74C655.16 35.46 653.52 29.71 653.52 26.02Z" fill="#784F69"/>
<path opacity="0.1" d="M604 122.35C604 122.35 600.32 139.35 607.22 149.95L611.13 149.63L609 122.63L604 122.35Z" fill="black"/>
<path d="M605 122.35C605 122.35 601.32 139.35 608.22 149.95L612.13 149.63L610 122.63L605 122.35Z" fill="#FD6F8D"/>
<path opacity="0.1" d="M703.86 75.9301L733.53 101.46C733.53 101.46 751.01 119.4 743.65 148.38C743.65 148.38 740.43 190.7 736.75 192.54C736.75 192.54 723.87 218.3 722.95 242.68C722.95 242.68 705.7 207.95 697.88 229.11C690.06 250.27 671.88 253.26 671.88 253.26L682 128.1C682 128.1 707.54 83.7101 703.86 75.9301Z" fill="black"/>
<path d="M704.78 75.9301L734.45 101.46C734.45 101.46 751.93 119.4 744.57 148.38C744.57 148.38 741.35 190.7 737.67 192.54C737.67 192.54 724.79 218.3 723.87 242.68C723.87 242.68 705.7 206.11 697.87 227.27C690.04 248.43 672.8 253.27 672.8 253.27L682.92 128.16C682.92 128.16 708.46 83.7101 704.78 75.9301Z" fill="#FD6F8D"/>
<path d="M718.35 183.76C718.35 183.76 725.71 178.7 737.67 192.5L708.23 245.86L698.34 230.93C698.34 230.93 719.27 189.74 718.35 183.76Z" fill="#FEC3BE"/>
<path opacity="0.1" d="M711.22 186.75C711.22 186.75 727.5 205.03 733.85 202.1L739.73 188.41L717.66 178.93L711.22 186.75Z" fill="black"/>
<path d="M711.22 185.83C711.22 185.83 727.5 204.11 733.85 201.18L739.73 187.49L717.66 178.01L711.22 185.83Z" fill="#FD6F8D"/>
<path opacity="0.1" d="M699.341 227.44C699.341 227.44 707.09 243.32 711.22 244.24L705.22 251.14L696.48 234.58L699.341 227.44Z" fill="black"/>
<path d="M698.88 227.93C698.88 227.93 706.63 243.81 710.76 244.73L704.76 251.63L696 235.04L698.88 227.93Z" fill="#4D4981"/>
<path opacity="0.1" d="M713.52 129.71C713.52 129.71 714.44 162.83 710.76 175.25Z" fill="black"/>
<path opacity="0.1" d="M639 136.15C639 136.15 644.52 134.31 644.52 129.71Z" fill="black"/>
<defs>
<linearGradient id="paint0_linear_178_327" x1="641.33" y1="468.7" x2="641.33" y2="5.05709e-05" gradientUnits="userSpaceOnUse">
<stop stop-color="#808080" stop-opacity="0.25"/>
<stop offset="0.54" stop-color="#808080" stop-opacity="0.12"/>
<stop offset="1" stop-color="#808080" stop-opacity="0.1"/>
</linearGradient>
</defs>
</svg>
