<svg width="84" height="84" viewBox="0 0 84 84" fill="none" xmlns="http://www.w3.org/2000/svg">
<path d="M66.9375 10.5H17.0625C14.628 10.5069 12.2951 11.4771 10.5736 13.1986C8.85212 14.9201 7.88193 17.253 7.875 19.6875V51.1875C7.88193 53.622 8.85212 55.9549 10.5736 57.6764C12.2951 59.3979 14.628 60.3681 17.0625 60.375H23.625V73.5L39.0009 60.6802C39.2371 60.4829 39.5349 60.3749 39.8426 60.375H66.9375C69.372 60.3681 71.7049 59.3979 73.4264 57.6764C75.1479 55.9549 76.1181 53.622 76.125 51.1875V19.6875C76.1181 17.253 75.1479 14.9201 73.4264 13.1986C71.7049 11.4771 69.372 10.5069 66.9375 10.5V10.5Z" stroke="url(#paint0_linear_101_426)" stroke-width="6" stroke-linejoin="round"/>
<defs>
<linearGradient id="paint0_linear_101_426" x1="8" y1="10" x2="87.5" y2="70.5" gradientUnits="userSpaceOnUse">
<stop stop-color="#AF35BA"/>
<stop offset="1" stop-color="#6836CE"/>
</linearGradient>
</defs>
</svg>
