<svg width="60" height="60" viewBox="0 0 60 60" fill="none" xmlns="http://www.w3.org/2000/svg">
<path d="M30.6516 11.8689C30.4771 11.702 30.245 11.6089 30.0035 11.6089C29.7621 11.6089 29.5299 11.702 29.3555 11.8689L7.78125 32.4787C7.68963 32.5663 7.61673 32.6717 7.56698 32.7883C7.51723 32.9049 7.49165 33.0304 7.4918 33.1572L7.48828 52.5002C7.48828 53.4947 7.88337 54.4486 8.58663 55.1518C9.28989 55.8551 10.2437 56.2502 11.2383 56.2502H22.5C22.9973 56.2502 23.4742 56.0526 23.8258 55.701C24.1775 55.3494 24.375 54.8725 24.375 54.3752V38.4377C24.375 38.189 24.4738 37.9506 24.6496 37.7748C24.8254 37.599 25.0639 37.5002 25.3125 37.5002H34.6875C34.9361 37.5002 35.1746 37.599 35.3504 37.7748C35.5262 37.9506 35.625 38.189 35.625 38.4377V54.3752C35.625 54.8725 35.8225 55.3494 36.1742 55.701C36.5258 56.0526 37.0027 56.2502 37.5 56.2502H48.757C49.7516 56.2502 50.7054 55.8551 51.4087 55.1518C52.1119 54.4486 52.507 53.4947 52.507 52.5002V33.1572C52.5072 33.0304 52.4816 32.9049 52.4319 32.7883C52.3821 32.6717 52.3092 32.5663 52.2176 32.4787L30.6516 11.8689Z" fill="url(#paint0_linear_101_9)"/>
<path d="M57.5286 28.6113L48.7629 20.2254V7.5C48.7629 7.00272 48.5654 6.52581 48.2138 6.17418C47.8621 5.82254 47.3852 5.625 46.8879 5.625H41.2629C40.7656 5.625 40.2887 5.82254 39.9371 6.17418C39.5855 6.52581 39.3879 7.00272 39.3879 7.5V11.25L32.6004 4.76016C31.9653 4.11797 31.0207 3.75 30 3.75C28.9829 3.75 28.0407 4.11797 27.4055 4.76133L2.47973 28.609C1.75083 29.3121 1.65942 30.4688 2.3227 31.2305C2.48926 31.4227 2.6932 31.5791 2.92211 31.6901C3.15102 31.801 3.40012 31.8642 3.65423 31.8758C3.90835 31.8875 4.16217 31.8472 4.40025 31.7577C4.63833 31.6681 4.85569 31.531 5.03911 31.3547L29.3555 8.11875C29.53 7.95185 29.7621 7.8587 30.0036 7.8587C30.245 7.8587 30.4771 7.95185 30.6516 8.11875L54.9703 31.3547C55.3286 31.6982 55.8084 31.8857 56.3046 31.876C56.8009 31.8664 57.273 31.6604 57.6176 31.3031C58.3371 30.5578 58.2774 29.3274 57.5286 28.6113Z" fill="url(#paint1_linear_101_9)"/>
<defs>
<linearGradient id="paint0_linear_101_9" x1="29.9977" y1="11.6089" x2="29.9977" y2="56.2502" gradientUnits="userSpaceOnUse">
<stop stop-color="#B734B8"/>
<stop offset="1" stop-color="#6536D0"/>
</linearGradient>
<linearGradient id="paint1_linear_101_9" x1="30.0001" y1="3.75" x2="30.0001" y2="31.8778" gradientUnits="userSpaceOnUse">
<stop stop-color="#B734B8"/>
<stop offset="1" stop-color="#6536D0"/>
</linearGradient>
</defs>
</svg>
