<svg width="79" height="79" viewBox="0 0 79 79" fill="none" xmlns="http://www.w3.org/2000/svg">
<path d="M69.1252 71.5938C68.801 71.5943 68.4799 71.5306 68.1803 71.4064C67.8808 71.2822 67.6089 71.0999 67.3801 70.8701L8.13013 11.6201C7.68669 11.1534 7.44313 10.5318 7.45137 9.88809C7.45962 9.24433 7.71901 8.62926 8.17425 8.17402C8.62949 7.71878 9.24456 7.45939 9.88832 7.45115C10.5321 7.4429 11.1536 7.68647 11.6203 8.1299L70.8703 67.3799C71.2154 67.7252 71.4503 68.1649 71.5455 68.6437C71.6406 69.1224 71.5918 69.6186 71.405 70.0696C71.2182 70.5206 70.902 70.906 70.4962 71.1773C70.0904 71.4486 69.6133 71.5935 69.1252 71.5938ZM67.9032 52.6631C67.6471 52.3545 67.3956 52.0459 67.1487 51.7481C63.7542 47.6422 61.7005 45.1642 61.7005 33.5411C61.7005 27.5235 60.2609 22.586 57.4234 18.8829C55.3311 16.1472 52.5028 14.0719 48.775 12.5382C48.7271 12.5115 48.6842 12.4765 48.6485 12.4348C47.3077 7.94475 43.6385 4.9375 39.5002 4.9375C35.362 4.9375 31.6944 7.94475 30.3535 12.4302C30.3177 12.4703 30.2755 12.5042 30.2285 12.5304C29.0609 13.0079 27.9322 13.5754 26.8525 14.2277C26.6929 14.325 26.5575 14.4573 26.4565 14.6145C26.3555 14.7717 26.2915 14.9499 26.2694 15.1354C26.2472 15.321 26.2675 15.5092 26.3287 15.6858C26.3899 15.8624 26.4904 16.0228 26.6226 16.1549L67.0145 56.5405C67.1961 56.7224 67.4301 56.843 67.6836 56.8855C67.9371 56.9281 68.1976 56.8904 68.4286 56.7777C68.6597 56.6651 68.8499 56.4831 68.9725 56.2572C69.0952 56.0313 69.1443 55.7727 69.1129 55.5176C68.9939 54.4692 68.5737 53.4777 67.9032 52.6631ZM17.3031 33.5364C17.3031 45.1642 15.2525 47.6422 11.8549 51.7435C11.608 52.0413 11.3565 52.3437 11.1003 52.6584C10.4387 53.4563 10.0195 54.4271 9.89238 55.4558C9.76523 56.4845 9.93544 57.5281 10.3829 58.4631C11.3349 60.4689 13.3639 61.7141 15.6799 61.7141H48.2643C48.5086 61.7143 48.7474 61.642 48.9506 61.5064C49.1538 61.3708 49.3121 61.1779 49.4056 60.9523C49.4991 60.7266 49.5236 60.4782 49.4759 60.2387C49.4282 59.9991 49.3104 59.7791 49.1376 59.6064L19.5126 29.9814C19.346 29.8154 19.1355 29.7004 18.9057 29.65C18.676 29.5996 18.4366 29.6158 18.2158 29.6969C17.995 29.778 17.8019 29.9204 17.6594 30.1075C17.5168 30.2946 17.4307 30.5185 17.4111 30.7529C17.3391 31.6468 17.3031 32.5746 17.3031 33.5364ZM39.5002 74.0625C41.7299 74.0607 43.9175 73.4555 45.831 72.311C47.7445 71.1665 49.3126 69.5255 50.3689 67.562C50.4187 67.4679 50.4433 67.3625 50.4403 67.2561C50.4373 67.1497 50.4068 67.0459 50.3518 66.9547C50.2969 66.8635 50.2192 66.7882 50.1265 66.7359C50.0338 66.6836 49.9291 66.6561 49.8227 66.6562H29.1809C29.0743 66.6559 28.9694 66.6831 28.8765 66.7353C28.7836 66.7875 28.7057 66.8628 28.6506 66.954C28.5954 67.0452 28.5648 67.1492 28.5618 67.2557C28.5587 67.3622 28.5833 67.4678 28.6331 67.562C29.6893 69.5253 31.2572 71.1662 33.1704 72.3106C35.0836 73.4551 37.2709 74.0604 39.5002 74.0625Z" fill="url(#paint0_linear_19_105)"/>
<defs>
<linearGradient id="paint0_linear_19_105" x1="39.522" y1="4.9375" x2="39.522" y2="74.0625" gradientUnits="userSpaceOnUse">
<stop stop-color="#B635BA"/>
<stop offset="1" stop-color="#6936CF"/>
</linearGradient>
</defs>
</svg>
