<svg width="481" height="352" viewBox="0 0 481 352" fill="none" xmlns="http://www.w3.org/2000/svg">
<path d="M320 176C299.44 176 279.56 166.82 264 150.16C248.87 133.91 239.63 112.24 238 89.16C236.26 64.54 243.77 41.9 259.14 25.4C274.51 8.9 296 0 320 0C343.83 0 365.38 9.06 380.7 25.52C396.17 42.14 403.7 64.74 401.96 89.15C400.29 112.26 391.06 133.92 375.96 150.15C360.44 166.82 340.57 176 320 176ZM451.83 352H188.18C183.941 352.023 179.753 351.073 175.939 349.223C172.125 347.373 168.786 344.673 166.18 341.33C163.415 337.706 161.505 333.504 160.595 329.038C159.684 324.572 159.795 319.957 160.92 315.54C169.34 281.73 190.2 253.69 221.24 234.46C248.79 217.4 283.86 208 320 208C356.85 208 391 217 418.71 234.05C449.82 253.18 470.71 281.38 479.09 315.6C480.201 320.02 480.3 324.635 479.379 329.099C478.458 333.562 476.54 337.761 473.77 341.38C471.166 344.707 467.835 347.394 464.032 349.235C460.229 351.076 456.055 352.022 451.83 352V352ZM131 180C95.8098 180 64.8698 147.28 61.9998 107.07C60.5798 86.47 66.9998 67.42 79.9998 53.45C92.8598 39.62 111 32 131 32C151 32 169 39.66 181.93 53.57C195.03 67.65 201.43 86.66 199.93 107.09C197.06 147.29 166.13 180 131 180ZM196.66 211.45C179.07 202.85 156.24 198.55 131.01 198.55C101.55 198.55 72.9398 206.23 50.4398 220.17C24.9298 236 7.76984 259.05 0.839839 286.88C-0.17431 290.883 -0.27023 295.063 0.559253 299.109C1.38874 303.154 3.12215 306.959 5.62984 310.24C8.00932 313.295 11.0577 315.763 14.5405 317.455C18.0233 319.147 21.8478 320.018 25.7198 320H136.72C138.593 320 140.407 319.342 141.846 318.141C143.284 316.941 144.255 315.273 144.59 313.43C144.7 312.8 144.84 312.17 145 311.55C153.48 277.49 173.35 248.71 202.71 227.73C203.79 226.952 204.658 225.916 205.237 224.717C205.815 223.518 206.086 222.194 206.023 220.864C205.96 219.535 205.567 218.242 204.879 217.102C204.19 215.963 203.228 215.014 202.08 214.34C200.51 213.42 198.71 212.45 196.66 211.45V211.45Z" fill="url(#paint0_linear_128_3)"/>
<defs>
<linearGradient id="paint0_linear_128_3" x1="240.002" y1="0" x2="240.002" y2="352" gradientUnits="userSpaceOnUse">
<stop stop-color="#B935B9"/>
<stop offset="1" stop-color="#6B36CF"/>
</linearGradient>
</defs>
</svg>
