<svg width="480" height="352" viewBox="0 0 480 352" fill="none" xmlns="http://www.w3.org/2000/svg">
<path d="M386.01 88L370.051 86.8475L370.051 86.8503L386.01 88ZM254.01 88L269.97 86.8701L269.97 86.8684L254.01 88ZM176.47 319.41L191.994 323.282L191.995 323.277L176.47 319.41ZM463.56 319.41L448.02 323.219L448.022 323.229L463.56 319.41ZM184.01 105.94L168.051 104.79V104.79L184.01 105.94ZM78.0095 105.94L62.0494 107.069L62.0495 107.07L78.0095 105.94ZM183.345 240.546C191.379 244.227 200.875 240.698 204.556 232.665C208.236 224.631 204.708 215.135 196.674 211.454L183.345 240.546ZM16.3598 290.75L0.834784 286.88L0.832037 286.891L0.829306 286.902L16.3598 290.75ZM138.01 320C146.846 320 154.01 312.837 154.01 304C154.01 295.164 146.846 288 138.01 288V320ZM370.051 86.8503C367.568 121.318 342.508 144 320.01 144V176C363.311 176 398.591 136.022 401.968 89.1497L370.051 86.8503ZM320.01 144C297.495 144 272.408 121.312 269.97 86.8701L238.05 89.1299C241.371 136.048 276.724 176 320.01 176V144ZM269.97 86.8684C268.759 69.7959 274.064 56.2805 282.694 47.079C291.364 37.8343 304.274 32 320.01 32V0C296.115 0 274.525 9.01073 259.353 25.1885C244.14 41.4095 236.26 63.8941 238.05 89.1316L269.97 86.8684ZM320.01 32C350.356 32 372.381 54.5808 370.051 86.8475L401.968 89.1525C405.638 38.3392 368.923 0 320.01 0V32ZM320.01 208C250.631 208 179.079 242.724 160.944 315.543L191.995 323.277C205.26 270.016 259.048 240 320.01 240V208ZM160.945 315.538C156.9 331.756 167.04 352 188.19 352V320C188.675 320 189.373 320.132 190.09 320.522C190.779 320.897 191.258 321.383 191.552 321.814C192.116 322.64 192.011 323.214 191.994 323.282L160.945 315.538ZM188.19 352H451.84V320H188.19V352ZM451.84 352C473.044 352 483.059 331.71 479.097 315.591L448.022 323.229C448.014 323.194 447.9 322.645 448.458 321.825C448.751 321.395 449.231 320.905 449.926 320.527C450.651 320.133 451.354 320 451.84 320V352ZM479.1 315.601C460.964 241.615 389.25 208 320.01 208V240C381.13 240 434.755 269.105 448.02 323.219L479.1 315.601ZM168.051 104.79C166.151 131.161 146.808 148 131.01 148V180C167.771 180 197.188 145.679 199.968 107.09L168.051 104.79ZM131.01 148C115.194 148 95.8346 131.155 93.9696 104.81L62.0495 107.07C64.7845 145.705 94.2646 180 131.01 180V148ZM93.9697 104.811C92.238 80.3281 108.581 64 131.01 64V32C90.1177 32 59.0011 63.9719 62.0494 107.069L93.9697 104.811ZM131.01 64C153.332 64 169.777 80.8379 168.051 104.79L199.968 107.09C203.022 64.7021 172.007 32 131.01 32V64ZM196.674 211.454C175.954 201.961 153.644 198.55 131.01 198.55V230.55C150.515 230.55 167.965 233.499 183.345 240.546L196.674 211.454ZM131.01 198.55C74.8047 198.55 15.8222 226.751 0.834784 286.88L31.8848 294.62C41.9973 254.049 83.2149 230.55 131.01 230.55V198.55ZM0.829306 286.902C-2.76802 301.423 6.31084 320 25.7298 320V288C27.8849 288 29.9527 289.208 31.0736 290.849C32.0583 292.291 32.1148 293.691 31.8903 294.598L0.829306 286.902ZM25.7298 320H138.01V288H25.7298V320Z" fill="url(#paint0_linear_109_6)"/>
<defs>
<linearGradient id="paint0_linear_109_6" x1="240.003" y1="16" x2="240.003" y2="336" gradientUnits="userSpaceOnUse">
<stop stop-color="#B935B9"/>
<stop offset="1" stop-color="#6B36CF"/>
</linearGradient>
</defs>
</svg>
