<svg width="129" height="129" viewBox="0 0 129 129" fill="none" xmlns="http://www.w3.org/2000/svg">
<g clip-path="url(#clip0_17_441)">
<path d="M4.83524 48.875L12.1877 41.69C12.3 41.5796 12.4334 41.4928 12.5798 41.4349C12.7262 41.3769 12.8828 41.3489 13.0402 41.3525C13.3576 41.3491 13.6637 41.4703 13.8927 41.69V41.69C14.159 41.9534 14.4818 42.1527 14.8365 42.2726C15.1913 42.3926 15.5688 42.4302 15.9402 42.3825C16.8977 42.2775 17.9202 41.9825 18.5827 41.3525C20.0827 39.9025 18.3477 37.045 19.6677 35.2175C21.1771 33.2169 22.8298 31.3286 24.6127 29.5675C26.1127 28.0975 32.0727 22.4875 42.0877 18.455C45.2905 17.1604 48.7132 16.4966 52.1677 16.5C57.8152 16.5 62.1677 19 63.7327 20.4175C64.6721 21.3113 65.532 22.2849 66.3027 23.3275C65.55 23.0501 64.7811 22.8188 64.0002 22.635C62.3579 22.2866 60.6733 22.1805 59.0002 22.32C55.6677 22.5925 51.6477 24.135 49.5002 25.82C46.0252 28.57 44.5327 32.25 44.2977 36.9975C44.1277 40.5275 44.9777 42.5225 53.3227 50.87C53.608 51.1884 53.7585 51.605 53.7426 52.0322C53.7268 52.4593 53.5458 52.8637 53.2377 53.16L48.6827 57.66C48.3652 57.9713 47.9394 58.1476 47.4948 58.1518C47.0501 58.156 46.6211 57.9878 46.2977 57.6825C40.8127 52.1975 37.1352 49.41 35.0477 48.1425C32.9602 46.875 31.2802 46.5175 30.4727 46.43C28.8868 46.2729 27.2912 46.6109 25.9052 47.3975C25.6621 47.5311 25.4397 47.6996 25.2452 47.8975C24.9206 48.233 24.6657 48.6295 24.4952 49.0641C24.3246 49.4986 24.2419 49.9627 24.2516 50.4294C24.2614 50.8961 24.3635 51.3563 24.5521 51.7833C24.7406 52.2104 25.0119 52.5959 25.3502 52.9175L25.7777 53.3175C25.8887 53.4254 25.9769 53.5544 26.0372 53.697C26.0974 53.8395 26.1285 53.9927 26.1285 54.1475C26.1285 54.3023 26.0974 54.4555 26.0372 54.598C25.9769 54.7406 25.8887 54.8696 25.7777 54.9775L18.4327 62.15C18.3215 62.2627 18.1886 62.3517 18.0422 62.4119C17.8957 62.472 17.7386 62.502 17.5802 62.5C17.2629 62.5032 16.9569 62.382 16.7277 62.1625L4.83524 50.555C4.62 50.3283 4.5 50.0276 4.5 49.715C4.5 49.4024 4.62 49.1017 4.83524 48.875V48.875Z" stroke="url(#paint0_linear_17_441)" stroke-width="8" stroke-linecap="round" stroke-linejoin="round"/>
<path d="M109.668 46.5275C108.395 47.7918 106.674 48.5015 104.88 48.5015C103.086 48.5015 101.365 47.7918 100.093 46.5275L94.4728 40.905C93.2079 39.6332 92.498 37.9124 92.498 36.1187C92.498 34.325 93.2079 32.6043 94.4728 31.3325L107.195 18.61C107.22 18.5855 107.238 18.5555 107.248 18.5224C107.258 18.4893 107.26 18.4543 107.254 18.4203C107.247 18.3863 107.233 18.3544 107.211 18.3273C107.19 18.3002 107.162 18.2788 107.13 18.265C98.9203 14.75 88.2728 16.5375 81.5128 23.25C75.0428 29.6725 74.6753 39.3175 77.0453 47.75C77.3821 48.9478 77.3812 50.2154 77.0428 51.4127C76.7044 52.6101 76.0417 53.6906 75.1278 54.535L31.8778 94.725C30.8455 95.6493 30.0125 96.7745 29.4299 98.0317C28.8473 99.2889 28.5272 100.652 28.4892 102.037C28.4512 103.422 28.6961 104.8 29.2089 106.088C29.7218 107.375 30.4917 108.544 31.4718 109.524C32.4519 110.503 33.6214 111.273 34.909 111.785C36.1965 112.297 37.575 112.541 38.9601 112.502C40.3452 112.464 41.7079 112.143 42.9648 111.56C44.2217 110.976 45.3465 110.143 46.2703 109.11L86.8078 65.785C87.643 64.8861 88.7074 64.232 89.8866 63.8928C91.0658 63.5536 92.3151 63.5423 93.5003 63.86C101.865 66.095 111.373 65.675 117.768 59.375C124.64 52.605 126.123 40.64 122.793 33.7925C122.778 33.7624 122.756 33.7364 122.729 33.7165C122.701 33.6966 122.67 33.6835 122.637 33.6781C122.604 33.6727 122.57 33.6753 122.538 33.6856C122.506 33.696 122.477 33.7137 122.453 33.7375L109.668 46.5275Z" stroke="url(#paint1_linear_17_441)" stroke-width="8" stroke-miterlimit="10" stroke-linecap="round"/>
<path d="M79.768 73.325C90.0055 82.85 102.423 94.1425 107.268 98.1775C107.63 98.4762 107.926 98.8474 108.136 99.2673C108.347 99.6872 108.467 100.146 108.489 100.615C108.511 101.085 108.435 101.553 108.265 101.991C108.095 102.429 107.836 102.826 107.503 103.158L99.158 111.5C98.8183 111.832 98.4147 112.091 97.9717 112.262C97.5286 112.433 97.0554 112.512 96.5809 112.494C96.1064 112.476 95.6404 112.362 95.2114 112.159C94.7824 111.955 94.3993 111.666 94.0855 111.31C89.953 106.515 78.813 94.5325 69.268 84.56M56.5005 71.5C52.1305 67.25 50.128 65.2725 48.7505 63.9275C48.0611 63.2426 47.6085 62.3555 47.4588 61.3953C47.309 60.4352 47.4699 59.4523 47.918 58.59C48.1542 58.166 48.4487 57.7772 48.793 57.435L52.713 53.6125C53.1186 53.2062 53.5958 52.8782 54.1205 52.645C54.9488 52.2784 55.868 52.1686 56.7594 52.33C57.6507 52.4913 58.4732 52.9163 59.1205 53.55C60.483 54.8725 62.978 57.3 67.473 61.68L56.5005 71.5Z" stroke="url(#paint2_linear_17_441)" stroke-width="8" stroke-linecap="round" stroke-linejoin="round"/>
</g>
<defs>
<linearGradient id="paint0_linear_17_441" x1="35.4014" y1="16.5" x2="35.4014" y2="62.5001" gradientUnits="userSpaceOnUse">
<stop stop-color="#B935B9"/>
<stop offset="1" stop-color="#6B36CF"/>
</linearGradient>
<linearGradient id="paint1_linear_17_441" x1="76.4915" y1="16.5034" x2="76.4915" y2="112.506" gradientUnits="userSpaceOnUse">
<stop stop-color="#B935B9"/>
<stop offset="1" stop-color="#6B36CF"/>
</linearGradient>
<linearGradient id="paint2_linear_17_441" x1="77.9485" y1="52.2576" x2="77.9485" y2="112.497" gradientUnits="userSpaceOnUse">
<stop stop-color="#B935B9"/>
<stop offset="1" stop-color="#6B36CF"/>
</linearGradient>
<clipPath id="clip0_17_441">
<rect width="128" height="128" fill="white" transform="translate(0.5 0.5)"/>
</clipPath>
</defs>
</svg>
