<svg width="167" height="167" viewBox="0 0 167 167" fill="none" xmlns="http://www.w3.org/2000/svg">
<path d="M92.5156 92.5154L109.594 109.594" stroke="url(#paint0_linear_17_454)" stroke-width="10" stroke-miterlimit="10" stroke-linecap="round"/>
<path d="M83.5 26.0938C72.1461 26.0937 61.0472 29.4606 51.6068 35.7684C42.1664 42.0763 34.8085 51.042 30.4636 61.5316C26.1186 72.0212 24.9818 83.5637 27.1968 94.6994C29.4119 105.835 34.8793 116.064 42.9077 124.092C50.9361 132.121 61.1649 137.588 72.3006 139.803C83.4363 142.018 94.9788 140.881 105.468 136.536C115.958 132.192 124.924 124.834 131.232 115.393C137.539 105.953 140.906 94.8539 140.906 83.5C140.906 68.2749 134.858 53.6734 124.092 42.9077C113.327 32.1419 98.7251 26.0938 83.5 26.0938Z" stroke="url(#paint1_linear_17_454)" stroke-width="10" stroke-miterlimit="10"/>
<path d="M75.6719 52.1875C71.0271 52.1875 66.4867 53.5648 62.6247 56.1453C58.7627 58.7258 55.7526 62.3936 53.9752 66.6848C52.1977 70.976 51.7326 75.6979 52.6388 80.2534C53.5449 84.809 55.7816 88.9935 59.0659 92.2778C62.3503 95.5622 66.5348 97.7989 71.0903 98.705C75.6458 99.6112 80.3678 99.1461 84.659 97.3686C88.9502 95.5911 92.6179 92.5811 95.1984 88.7191C97.7789 84.8571 99.1563 80.3166 99.1563 75.6719C99.1563 72.5879 98.5488 69.534 97.3686 66.6848C96.1884 63.8355 94.4586 61.2466 92.2778 59.0659C90.0971 56.8852 87.5082 55.1553 84.659 53.9751C81.8097 52.7949 78.7559 52.1875 75.6719 52.1875V52.1875Z" stroke="url(#paint2_linear_17_454)" stroke-width="10" stroke-miterlimit="10"/>
<defs>
<linearGradient id="paint0_linear_17_454" x1="101.055" y1="92.5154" x2="101.055" y2="109.594" gradientUnits="userSpaceOnUse">
<stop stop-color="#B935B9"/>
<stop offset="1" stop-color="#6D36CE"/>
</linearGradient>
<linearGradient id="paint1_linear_17_454" x1="83.5" y1="26.0937" x2="83.5" y2="140.906" gradientUnits="userSpaceOnUse">
<stop stop-color="#B935B9"/>
<stop offset="1" stop-color="#6D36CE"/>
</linearGradient>
<linearGradient id="paint2_linear_17_454" x1="75.6719" y1="52.1875" x2="75.6719" y2="99.1563" gradientUnits="userSpaceOnUse">
<stop stop-color="#B935B9"/>
<stop offset="1" stop-color="#6D36CE"/>
</linearGradient>
</defs>
</svg>
