<svg width="65" height="65" viewBox="0 0 65 65" fill="none" xmlns="http://www.w3.org/2000/svg">
<path d="M32.5 38.5938C35.8655 38.5938 38.5938 35.8655 38.5938 32.5C38.5938 29.1345 35.8655 26.4062 32.5 26.4062C29.1345 26.4062 26.4062 29.1345 26.4062 32.5C26.4062 35.8655 29.1345 38.5938 32.5 38.5938Z" fill="url(#paint0_linear_101_42)"/>
<path d="M59.7175 38.0859L59.6579 38.0377L55.6512 34.8956C55.3975 34.6949 55.195 34.4368 55.0604 34.1427C54.9258 33.8485 54.8629 33.5265 54.8768 33.2033V31.7357C54.8641 31.4146 54.9278 31.095 55.0626 30.8032C55.1975 30.5114 55.3996 30.2558 55.6525 30.0574L59.6579 26.9141L59.7175 26.8658C60.3353 26.3512 60.7498 25.6337 60.887 24.8415C61.0242 24.0493 60.8752 23.2342 60.4666 22.5418L55.0444 13.16C55.0382 13.1511 55.0326 13.1418 55.0279 13.132C54.617 12.4492 53.98 11.9319 53.2275 11.6698C52.4749 11.4078 51.6544 11.4175 50.9083 11.6975L50.8638 11.714L46.1539 13.6094C45.8566 13.7296 45.535 13.7774 45.2156 13.7489C44.8962 13.7205 44.5882 13.6165 44.3169 13.4456C43.9005 13.1832 43.4773 12.9353 43.0473 12.7017C42.7686 12.5505 42.5292 12.3359 42.3486 12.0753C42.168 11.8146 42.0512 11.5152 42.0076 11.2011L41.2979 6.175L41.2827 6.08359C41.1282 5.30511 40.7104 4.60354 40.0996 4.09677C39.4888 3.59 38.7222 3.30893 37.9286 3.30078H27.0715C26.2667 3.30336 25.4887 3.58987 24.8744 4.10986C24.2601 4.62984 23.8491 5.34993 23.7136 6.14326L23.7022 6.21436L22.9951 11.2506C22.9517 11.5638 22.8358 11.8625 22.6566 12.123C22.4774 12.3836 22.2399 12.5986 21.963 12.7512C21.5318 12.9834 21.1083 13.2298 20.6934 13.49C20.4226 13.6599 20.1153 13.7631 19.7969 13.7911C19.4784 13.8191 19.1578 13.7712 18.8615 13.6513L14.1477 11.747L14.1033 11.7292C13.3561 11.449 12.5344 11.4396 11.781 11.7026C11.0276 11.9656 10.3902 12.4845 9.97985 13.1688L9.96334 13.1968L4.53356 22.585C4.1243 23.278 3.97493 24.0941 4.11215 24.8872C4.24938 25.6803 4.66425 26.3988 5.28258 26.9141L5.34225 26.9623L9.34889 30.1044C9.60262 30.3051 9.80511 30.5632 9.93973 30.8573C10.0744 31.1515 10.1373 31.4735 10.1233 31.7967V33.2643C10.136 33.5854 10.0723 33.905 9.93749 34.1968C9.80264 34.4886 9.60048 34.7442 9.34762 34.9426L5.34225 38.0859L5.28258 38.1342C4.66486 38.6488 4.25032 39.3663 4.1131 40.1585C3.97588 40.9507 4.12491 41.7658 4.53356 42.4582L9.95573 51.84C9.96197 51.8489 9.96749 51.8582 9.97223 51.868C10.3831 52.5508 11.0201 53.0681 11.7726 53.3302C12.5252 53.5922 13.3458 53.5825 14.0919 53.3025L14.1363 53.286L18.8424 51.3906C19.1397 51.2704 19.4613 51.2226 19.7807 51.2511C20.1001 51.2795 20.4081 51.3835 20.6795 51.5544C21.0959 51.8176 21.519 52.0656 21.949 52.2983C22.2278 52.4495 22.4671 52.6641 22.6477 52.9247C22.8283 53.1854 22.9451 53.4848 22.9887 53.7989L23.6946 58.825L23.7098 58.9164C23.8646 59.6962 24.2835 60.3987 24.8958 60.9056C25.5082 61.4125 26.2766 61.6928 27.0715 61.6992H37.9286C38.7334 61.6966 39.5115 61.4101 40.1257 60.8901C40.74 60.3702 41.1511 59.6501 41.2865 58.8567L41.2979 58.7856L42.005 53.7494C42.0491 53.4356 42.166 53.1365 42.3463 52.8759C42.5266 52.6154 42.7654 52.4006 43.0435 52.2488C43.4777 52.0152 43.9017 51.7677 44.313 51.51C44.5839 51.3401 44.8912 51.2369 45.2096 51.2089C45.5281 51.1809 45.8486 51.2288 46.145 51.3487L50.8588 53.2467L50.9032 53.2645C51.6503 53.5452 52.4722 53.5549 53.2258 53.2918C53.9793 53.0287 54.6166 52.5095 55.0266 51.8248C55.0317 51.8152 55.0372 51.8059 55.0431 51.7969L60.4653 42.4163C60.8753 41.7233 61.0252 40.907 60.8882 40.1135C60.7512 39.3201 60.3362 38.6013 59.7175 38.0859ZM42.6449 32.9773C42.5524 34.9433 41.8908 36.8401 40.7403 38.437C39.5899 40.0338 38.0002 41.2621 36.1647 41.9723C34.3291 42.6824 32.3268 42.844 30.4011 42.4373C28.4755 42.0306 26.7095 41.0732 25.3179 39.6814C23.9263 38.2896 22.969 36.5235 22.5626 34.5978C22.1561 32.6721 22.3179 30.6698 23.0283 28.8343C23.7387 26.9989 24.9671 25.4094 26.5642 24.2591C28.1612 23.1088 30.058 22.4474 32.024 22.3552C33.4354 22.293 34.8443 22.5253 36.1611 23.0371C37.4779 23.549 38.6738 24.3292 39.6727 25.3283C40.6716 26.3273 41.4518 27.5233 41.9634 28.8401C42.4751 30.157 42.7072 31.5659 42.6449 32.9773Z" fill="url(#paint1_linear_101_42)"/>
<defs>
<linearGradient id="paint0_linear_101_42" x1="32.5" y1="26.4062" x2="32.5" y2="38.5938" gradientUnits="userSpaceOnUse">
<stop stop-color="#B034B8"/>
<stop offset="1" stop-color="#7034CB"/>
</linearGradient>
<linearGradient id="paint1_linear_101_42" x1="32.5001" y1="3.30078" x2="32.5001" y2="61.6992" gradientUnits="userSpaceOnUse">
<stop stop-color="#B034B8"/>
<stop offset="1" stop-color="#7034CB"/>
</linearGradient>
</defs>
</svg>
