<svg width="512" height="512" viewBox="0 0 512 512" fill="none" xmlns="http://www.w3.org/2000/svg">
<path d="M240 241V96C240 87.5131 236.629 79.3737 230.627 73.3726C224.626 67.3714 216.487 64 208 64C199.513 64 191.374 67.3714 185.373 73.3726C179.371 79.3737 176 87.5131 176 96V320L139.51 232.08C131.11 216.12 110.72 211.58 95.2 220.4C79.69 229.21 76.67 245.95 83.33 264L136 408C156.29 456.4 192 496 280 496C368 496 432 437.4 432 320V144C432 135.513 428.629 127.374 422.627 121.373C416.626 115.371 408.487 112 400 112C391.513 112 383.374 115.371 377.373 121.373C371.371 127.374 368 135.513 368 144V256V80C368 71.5131 364.629 63.3737 358.627 57.3726C352.626 51.3714 344.487 48 336 48C327.513 48 319.374 51.3714 313.373 57.3726C307.371 63.3737 304 71.5131 304 80V240V48C304 39.5131 300.629 31.3737 294.627 25.3726C288.626 19.3714 280.487 16 272 16C263.513 16 255.374 19.3714 249.373 25.3726C243.371 31.3737 240 39.5131 240 48V240" stroke="url(#paint0_linear_108_13)" stroke-width="32" stroke-linecap="round" stroke-linejoin="round"/>
<defs>
<linearGradient id="paint0_linear_108_13" x1="256" y1="16" x2="256" y2="496" gradientUnits="userSpaceOnUse">
<stop stop-color="#B935B9"/>
<stop offset="1" stop-color="#6B36CF"/>
</linearGradient>
</defs>
</svg>
